<svg width="20" height="20" viewBox="0 0 20 20" fill="none" xmlns="http://www.w3.org/2000/svg">
<g clip-path="url(#clip0_1839_5859)">
<path d="M10 0.998047V2.99805" stroke="#151515" stroke-width="1.5" stroke-miterlimit="10" stroke-linecap="round"/>
<path d="M10 16.998V18.998" stroke="#151515" stroke-width="1.5" stroke-miterlimit="10" stroke-linecap="round"/>
<path d="M19 9.99805H17" stroke="#151515" stroke-width="1.5" stroke-miterlimit="10" stroke-linecap="round"/>
<path d="M3 9.99805H1" stroke="#151515" stroke-width="1.5" stroke-miterlimit="10" stroke-linecap="round"/>
<path d="M10 0.998047V2.99805" stroke="#151515" stroke-width="1.5" stroke-miterlimit="10" stroke-linecap="round"/>
<path d="M10 16.998V18.998" stroke="#151515" stroke-width="1.5" stroke-miterlimit="10" stroke-linecap="round"/>
<path d="M19 9.99805H17" stroke="#151515" stroke-width="1.5" stroke-miterlimit="10" stroke-linecap="round"/>
<path d="M3 9.99805H1" stroke="#151515" stroke-width="1.5" stroke-miterlimit="10" stroke-linecap="round"/>
<path d="M16 3.99805L15 4.99805" stroke="#151515" stroke-width="1.5" stroke-miterlimit="10" stroke-linecap="round"/>
<path d="M5 14.998L4 15.998" stroke="#151515" stroke-width="1.5" stroke-miterlimit="10" stroke-linecap="round"/>
<path d="M16 15.998L15 14.998" stroke="#151515" stroke-width="1.5" stroke-miterlimit="10" stroke-linecap="round"/>
<path d="M5 4.99805L4 3.99805" stroke="#151515" stroke-width="1.5" stroke-miterlimit="10" stroke-linecap="round"/>
<path d="M16 3.99805L15 4.99805" stroke="#151515" stroke-width="1.5" stroke-miterlimit="10" stroke-linecap="round"/>
<path d="M5 14.998L4 15.998" stroke="#151515" stroke-width="1.5" stroke-miterlimit="10" stroke-linecap="round"/>
<path d="M16 15.998L15 14.998" stroke="#151515" stroke-width="1.5" stroke-miterlimit="10" stroke-linecap="round"/>
<path d="M5 4.99805L4 3.99805" stroke="#151515" stroke-width="1.5" stroke-miterlimit="10" stroke-linecap="round"/>
<path d="M10 14.998C12.7614 14.998 15 12.7595 15 9.99805C15 7.23662 12.7614 4.99805 10 4.99805C7.23858 4.99805 5 7.23662 5 9.99805C5 12.7595 7.23858 14.998 10 14.998Z" stroke="#151515" stroke-width="1.5" stroke-miterlimit="10" stroke-linecap="round"/>
</g>
<defs>
<clipPath id="clip0_1839_5859">
<rect width="20" height="20" fill="white"/>
</clipPath>
</defs>
</svg>
