<svg width="20" height="20" viewBox="0 0 20 20" fill="none" xmlns="http://www.w3.org/2000/svg">
<path d="M17.8831 12.8819C17.255 14.1934 16.2866 15.3123 15.0789 16.1221C13.8711 16.932 12.4683 17.403 11.0166 17.4862C9.56489 17.5694 8.11743 17.2617 6.82511 16.5951C5.53279 15.9286 4.44291 14.9276 3.66908 13.6965C2.89525 12.4654 2.4658 11.0493 2.42549 9.59572C2.38518 8.14219 2.73548 6.70444 3.43989 5.43236C4.1443 4.16027 5.17703 3.10041 6.43042 2.36325C7.68382 1.62609 9.11199 1.23862 10.5661 1.24123C11.298 1.23964 12.0267 1.33853 12.7318 1.53515C11.3031 1.98831 10.0835 2.9375 9.29342 4.21125C8.50334 5.485 8.19485 6.99931 8.42368 8.48062C8.65251 9.96194 9.40357 11.3126 10.5412 12.2885C11.6788 13.2645 13.1279 13.8014 14.6268 13.8024C15.7767 13.8041 16.9043 13.4853 17.8831 12.8819Z" stroke="#151515" stroke-width="1.5" stroke-miterlimit="10" stroke-linejoin="round"/>
</svg>
