<svg width="24" height="24" viewBox="0 0 24 24" fill="none" xmlns="http://www.w3.org/2000/svg">
<rect width="24" height="24" rx="8" fill="#E9E9EE"/>
<path d="M5.25586 14.9352C5.38786 11.1621 8.54386 8.19482 12.1799 8.30471C15.6719 8.4024 18.5879 11.3086 18.7199 14.923C14.2319 14.923 9.74386 14.923 5.25586 14.9352Z" stroke="#90909F" stroke-width="1.5" stroke-miterlimit="10" stroke-linecap="round"/>
<path d="M3 14.9355H21" stroke="#90909F" stroke-width="1.5" stroke-miterlimit="10" stroke-linecap="round"/>
<path d="M11.9871 8.16982C12.7427 8.16982 13.3551 7.55205 13.3551 6.78999C13.3551 6.02793 12.7427 5.41016 11.9871 5.41016C11.2316 5.41016 10.6191 6.02793 10.6191 6.78999C10.6191 7.55205 11.2316 8.16982 11.9871 8.16982Z" stroke="#90909F" stroke-width="1.5" stroke-miterlimit="10" stroke-linecap="round"/>
<path d="M4.33203 14.9355C4.56003 15.4606 4.78803 15.9857 5.00403 16.5108C5.22003 17.0358 5.76003 17.3899 6.33603 17.3899H17.556C18.252 17.3899 18.888 16.9503 19.116 16.2787C19.272 15.8269 19.428 15.3874 19.584 14.9355H4.33203Z" stroke="#90909F" stroke-width="1.5" stroke-miterlimit="10" stroke-linecap="round"/>
</svg>
