<svg width="24" height="24" viewBox="0 0 24 24" fill="none" xmlns="http://www.w3.org/2000/svg">
<path d="M8.17985 5.32007V6.40164C8.17985 6.93207 7.96914 7.44078 7.59406 7.81585L5.90564 9.50428C5.53056 9.87935 5.31985 10.3881 5.31985 10.9185V20.5901C5.31853 20.8413 5.36702 21.0902 5.46254 21.3226C5.55806 21.5549 5.6987 21.766 5.87632 21.9436C6.05395 22.1212 6.26503 22.2619 6.49736 22.3574C6.72969 22.4529 6.97866 22.5014 7.22985 22.5001H16.7699C17.021 22.5014 17.27 22.4529 17.5023 22.3574C17.7347 22.2619 17.9458 22.1212 18.1234 21.9436C18.301 21.766 18.4416 21.5549 18.5372 21.3226C18.6327 21.0902 18.6812 20.8413 18.6799 20.5901V10.9185C18.6799 10.3881 18.4691 9.87935 18.0941 9.50428L16.4056 7.81585C16.0306 7.44078 15.8198 6.93207 15.8198 6.40164V5.32007" stroke="#464655" stroke-width="1.5" stroke-miterlimit="10" stroke-linejoin="round"/>
<path d="M14.87 1.5H9.13998C8.08512 1.5 7.22998 2.35514 7.22998 3.41C7.22998 4.46486 8.08512 5.32 9.13998 5.32H14.87C15.9248 5.32 16.78 4.46486 16.78 3.41C16.78 2.35514 15.9248 1.5 14.87 1.5Z" stroke="#464655" stroke-width="1.5" stroke-miterlimit="10"/>
<path d="M9 15H15" stroke="#464655" stroke-width="1.5" stroke-miterlimit="10" stroke-linecap="round"/>
<path d="M12 12V18" stroke="#464655" stroke-width="1.5" stroke-miterlimit="10" stroke-linecap="round"/>
</svg>
