<svg width="14" height="16" viewBox="0 0 14 16" fill="none" xmlns="http://www.w3.org/2000/svg">
<g id="Group 244">
<g id="Group 16">
<g id="bell-check">
<path id="Vector" d="M11.9086 9.55413V6.5C11.9071 5.04183 11.3894 3.64387 10.4692 2.61278C9.54901 1.5817 8.30137 1.00169 7 1C5.69863 1.00169 4.45099 1.5817 3.53079 2.61278C2.61058 3.64387 2.09294 5.04183 2.09143 6.5V9.55413L1 10.7771V12H13V10.7771L11.9086 9.55413Z" stroke="#151515" stroke-width="1.3" stroke-miterlimit="10"/>
<path id="Vector_2" d="M8.88027 12C8.96629 12.2063 9.0067 12.4266 8.9991 12.6477C8.9991 13.1389 8.78848 13.6101 8.41358 13.9575C8.03867 14.3048 7.53019 14.5 7 14.5C6.46981 14.5 5.96133 14.3048 5.58642 13.9575C5.21152 13.6101 5.0009 13.1389 5.0009 12.6477C4.9933 12.4266 5.03371 12.2063 5.11973 12" stroke="#151515" stroke-width="1.3" stroke-miterlimit="10"/>
</g>
</g>
</g>
</svg>
