<svg width="20" height="20" viewBox="0 0 20 20" fill="none" xmlns="http://www.w3.org/2000/svg">
<rect width="20" height="20" fill="#E8E8E8"/>
<g id="&#237;&#153;&#149;&#236;&#160;&#149; &#235;&#148;&#148;&#236;&#158;&#144;&#236;&#157;&#184;">
<path d="M-7451 -1663C-7451 -1664.1 -7450.1 -1665 -7449 -1665H5659C5660.1 -1665 5661 -1664.1 5661 -1663V5497C5661 5498.1 5660.1 5499 5659 5499H-7449C-7450.1 5499 -7451 5498.1 -7451 5497V-1663Z" fill="#E3E3E3"/>
<g id="&#237;&#153;&#136;-&#235;&#139;&#164;&#235;&#165;&#184; &#235;&#130;&#160;&#236;&#167;&#156; &#235;&#179;&#181;&#236;&#149;&#189;&#236;&#160;&#149;&#235;&#179;&#180; default (&#236;&#163;&#188;&#234;&#176;&#132;&#235;&#139;&#172;&#235;&#160;&#165;)" clip-path="url(#clip0_0_1)">
<rect width="380" height="812" transform="translate(-107 -93)" fill="#F5F5F9"/>
<g id="header">
<g id="card background">
<rect id="card background_2" x="-107" y="-93" width="380" height="256.992" fill="white"/>
</g>
<g id="month">
<g id="previous-month">
<circle id="Ellipse 92" cx="10" cy="10" r="9.5" fill="#F5F5F9" stroke="#E9E9EE"/>
<path id="Vector 1" d="M11 7L8 10L11 13" stroke="#90909F" stroke-width="1.5" stroke-linecap="round" stroke-linejoin="round"/>
</g>
</g>
</g>
</g>
<path d="M-7449 5497L-7449 5497H-7453C-7453 5499.21 -7451.21 5501 -7449 5501V5497ZM-7449 5497V5487H-7453V5497H-7449ZM-7449 5467V5447H-7453V5467H-7449ZM-7449 5427V5407H-7453V5427H-7449ZM-7449 5387V5367H-7453V5387H-7449ZM-7449 5347V5327H-7453V5347H-7449ZM-7449 5307V5287H-7453V5307H-7449ZM-7449 5267V5247H-7453V5267H-7449ZM-7449 5227V5207H-7453V5227H-7449ZM-7449 5187V5167H-7453V5187H-7449ZM-7449 5147V5127H-7453V5147H-7449ZM-7449 5107V5087H-7453V5107H-7449ZM-7449 5067V5047H-7453V5067H-7449ZM-7449 5027V5007H-7453V5027H-7449ZM-7449 4987V4967H-7453V4987H-7449ZM-7449 4947V4927H-7453V4947H-7449ZM-7449 4907V4887H-7453V4907H-7449ZM-7449 4867V4847H-7453V4867H-7449ZM-7449 4827V4807H-7453V4827H-7449ZM-7449 4787V4767H-7453V4787H-7449ZM-7449 4747V4727H-7453V4747H-7449ZM-7449 4707V4687H-7453V4707H-7449ZM-7449 4667V4647H-7453V4667H-7449ZM-7449 4627V4607H-7453V4627H-7449ZM-7449 4587V4567H-7453V4587H-7449ZM-7449 4547V4527H-7453V4547H-7449ZM-7449 4507V4487H-7453V4507H-7449ZM-7449 4467V4447H-7453V4467H-7449ZM-7449 4427V4407H-7453V4427H-7449ZM-7449 4387V4367H-7453V4387H-7449ZM-7449 4347V4327H-7453V4347H-7449ZM-7449 4307V4287H-7453V4307H-7449ZM-7449 4267V4247H-7453V4267H-7449ZM-7449 4227V4207H-7453V4227H-7449ZM-7449 4187V4167H-7453V4187H-7449ZM-7449 4147V4127H-7453V4147H-7449ZM-7449 4107V4087H-7453V4107H-7449ZM-7449 4067V4047H-7453V4067H-7449ZM-7449 4027V4007H-7453V4027H-7449ZM-7449 3987V3967H-7453V3987H-7449ZM-7449 3947V3927H-7453V3947H-7449ZM-7449 3907V3887H-7453V3907H-7449ZM-7449 3867V3847H-7453V3867H-7449ZM-7449 3827V3807H-7453V3827H-7449ZM-7449 3787V3767H-7453V3787H-7449ZM-7449 3747V3727H-7453V3747H-7449ZM-7449 3707V3687H-7453V3707H-7449ZM-7449 3667V3647H-7453V3667H-7449ZM-7449 3627V3607H-7453V3627H-7449ZM-7449 3587V3567H-7453V3587H-7449ZM-7449 3547V3527H-7453V3547H-7449ZM-7449 3507V3487H-7453V3507H-7449ZM-7449 3467V3447H-7453V3467H-7449ZM-7449 3427V3407H-7453V3427H-7449ZM-7449 3387V3367H-7453V3387H-7449ZM-7449 3347V3327H-7453V3347H-7449ZM-7449 3307V3287H-7453V3307H-7449ZM-7449 3267V3247H-7453V3267H-7449ZM-7449 3227V3207H-7453V3227H-7449ZM-7449 3187V3167H-7453V3187H-7449ZM-7449 3147V3127H-7453V3147H-7449ZM-7449 3107V3087H-7453V3107H-7449ZM-7449 3067V3047H-7453V3067H-7449ZM-7449 3027V3007H-7453V3027H-7449ZM-7449 2987V2967H-7453V2987H-7449ZM-7449 2947V2927H-7453V2947H-7449ZM-7449 2907V2887H-7453V2907H-7449ZM-7449 2867V2847H-7453V2867H-7449ZM-7449 2827V2807H-7453V2827H-7449ZM-7449 2787V2767H-7453V2787H-7449ZM-7449 2747V2727H-7453V2747H-7449ZM-7449 2707V2687H-7453V2707H-7449ZM-7449 2667V2647H-7453V2667H-7449ZM-7449 2627V2607H-7453V2627H-7449ZM-7449 2587V2567H-7453V2587H-7449ZM-7449 2547V2527H-7453V2547H-7449ZM-7449 2507V2487H-7453V2507H-7449ZM-7449 2467V2447H-7453V2467H-7449ZM-7449 2427V2407H-7453V2427H-7449ZM-7449 2387V2367H-7453V2387H-7449ZM-7449 2347V2327H-7453V2347H-7449ZM-7449 2307V2287H-7453V2307H-7449ZM-7449 2267V2247H-7453V2267H-7449ZM-7449 2227V2207H-7453V2227H-7449ZM-7449 2187V2167H-7453V2187H-7449ZM-7449 2147V2127H-7453V2147H-7449ZM-7449 2107V2087H-7453V2107H-7449ZM-7449 2067V2047H-7453V2067H-7449ZM-7449 2027V2007H-7453V2027H-7449ZM-7449 1987V1967H-7453V1987H-7449ZM-7449 1947V1927H-7453V1947H-7449ZM-7449 1907V1887H-7453V1907H-7449ZM-7449 1867V1847H-7453V1867H-7449ZM-7449 1827V1807H-7453V1827H-7449ZM-7449 1787V1767H-7453V1787H-7449ZM-7449 1747V1727H-7453V1747H-7449ZM-7449 1707V1687H-7453V1707H-7449ZM-7449 1667V1647H-7453V1667H-7449ZM-7449 1627V1607H-7453V1627H-7449ZM-7449 1587V1567H-7453V1587H-7449ZM-7449 1547V1527H-7453V1547H-7449ZM-7449 1507V1487H-7453V1507H-7449ZM-7449 1467V1447H-7453V1467H-7449ZM-7449 1427V1407H-7453V1427H-7449ZM-7449 1387V1367H-7453V1387H-7449ZM-7449 1347V1327H-7453V1347H-7449ZM-7449 1307V1287H-7453V1307H-7449ZM-7449 1267V1247H-7453V1267H-7449ZM-7449 1227V1207H-7453V1227H-7449ZM-7449 1187V1167H-7453V1187H-7449ZM-7449 1147V1127H-7453V1147H-7449ZM-7449 1107V1087H-7453V1107H-7449ZM-7449 1067V1047H-7453V1067H-7449ZM-7449 1027V1007H-7453V1027H-7449ZM-7449 987V967H-7453V987H-7449ZM-7449 947V927H-7453V947H-7449ZM-7449 907V887H-7453V907H-7449ZM-7449 867V847H-7453V867H-7449ZM-7449 827V807H-7453V827H-7449ZM-7449 787V767H-7453V787H-7449ZM-7449 747V727H-7453V747H-7449ZM-7449 707V687H-7453V707H-7449ZM-7449 667V647H-7453V667H-7449ZM-7449 627V607H-7453V627H-7449ZM-7449 587V567H-7453V587H-7449ZM-7449 547V527H-7453V547H-7449ZM-7449 507V487H-7453V507H-7449ZM-7449 467V447H-7453V467H-7449ZM-7449 427V407H-7453V427H-7449ZM-7449 387V367H-7453V387H-7449ZM-7449 347V327H-7453V347H-7449ZM-7449 307V287H-7453V307H-7449ZM-7449 267V247H-7453V267H-7449ZM-7449 227V207H-7453V227H-7449ZM-7449 187V167H-7453V187H-7449ZM-7449 147V127H-7453V147H-7449ZM-7449 107V87.0003H-7453V107H-7449ZM-7449 67.0002V47H-7453V67.0002H-7449ZM-7449 26.9999V7.00025H-7453V26.9999H-7449ZM-7449 -12.9999V-33H-7453V-12.9999H-7449ZM-7449 -53.0001V-72.9998H-7453V-53.0001H-7449ZM-7449 -92.9999V-113H-7453V-92.9999H-7449ZM-7449 -133V-153H-7453V-133H-7449ZM-7449 -173V-193H-7453V-173H-7449ZM-7449 -213V-233H-7453V-213H-7449ZM-7449 -253V-273H-7453V-253H-7449ZM-7449 -293V-313H-7453V-293H-7449ZM-7449 -333V-353H-7453V-333H-7449ZM-7449 -373V-393H-7453V-373H-7449ZM-7449 -413V-433H-7453V-413H-7449ZM-7449 -453V-473H-7453V-453H-7449ZM-7449 -493V-513H-7453V-493H-7449ZM-7449 -533V-553H-7453V-533H-7449ZM-7449 -573V-593H-7453V-573H-7449ZM-7449 -613V-633H-7453V-613H-7449ZM-7449 -653V-673H-7453V-653H-7449ZM-7449 -693V-713H-7453V-693H-7449ZM-7449 -733V-753H-7453V-733H-7449ZM-7449 -773V-793H-7453V-773H-7449ZM-7449 -813V-833H-7453V-813H-7449ZM-7449 -853V-873H-7453V-853H-7449ZM-7449 -893V-913H-7453V-893H-7449ZM-7449 -933V-953H-7453V-933H-7449ZM-7449 -973V-993H-7453V-973H-7449ZM-7449 -1013V-1033H-7453V-1013H-7449ZM-7449 -1053V-1073H-7453V-1053H-7449ZM-7449 -1093V-1113H-7453V-1093H-7449ZM-7449 -1133V-1153H-7453V-1133H-7449ZM-7449 -1173V-1193H-7453V-1173H-7449ZM-7449 -1213V-1233H-7453V-1213H-7449ZM-7449 -1253V-1273H-7453V-1253H-7449ZM-7449 -1293V-1313H-7453V-1293H-7449ZM-7449 -1333V-1353H-7453V-1333H-7449ZM-7449 -1373V-1393H-7453V-1373H-7449ZM-7449 -1413V-1433H-7453V-1413H-7449ZM-7449 -1453V-1473H-7453V-1453H-7449ZM-7449 -1493V-1513H-7453V-1493H-7449ZM-7449 -1533V-1553H-7453V-1533H-7449ZM-7449 -1573V-1593H-7453V-1573H-7449ZM-7449 -1613V-1633H-7453V-1613H-7449ZM-7449 -1653V-1663H-7453V-1653H-7449ZM-7449 -1663L-7449 -1663V-1667C-7451.21 -1667 -7453 -1665.21 -7453 -1663H-7449ZM-7449 -1663H-7439.01V-1667H-7449V-1663ZM-7419.03 -1663H-7399.05V-1667H-7419.03V-1663ZM-7379.06 -1663H-7359.08V-1667H-7379.06V-1663ZM-7339.1 -1663H-7319.12V-1667H-7339.1V-1663ZM-7299.14 -1663H-7279.16V-1667H-7299.14V-1663ZM-7259.17 -1663H-7239.19V-1667H-7259.17V-1663ZM-7219.21 -1663H-7199.23V-1667H-7219.21V-1663ZM-7179.25 -1663H-7159.27V-1667H-7179.25V-1663ZM-7139.28 -1663H-7119.3V-1667H-7139.28V-1663ZM-7099.32 -1663H-7079.34V-1667H-7099.32V-1663ZM-7059.36 -1663H-7039.37V-1667H-7059.36V-1663ZM-7019.39 -1663H-6999.41V-1667H-7019.39V-1663ZM-6979.43 -1663H-6959.45V-1667H-6979.43V-1663ZM-6939.47 -1663H-6919.48V-1667H-6939.47V-1663ZM-6899.5 -1663H-6879.52V-1667H-6899.5V-1663ZM-6859.54 -1663H-6839.56V-1667H-6859.54V-1663ZM-6819.58 -1663H-6799.59V-1667H-6819.58V-1663ZM-6779.61 -1663H-6759.63V-1667H-6779.61V-1663ZM-6739.65 -1663H-6719.67V-1667H-6739.65V-1663ZM-6699.69 -1663H-6679.7V-1667H-6699.69V-1663ZM-6659.72 -1663H-6639.74V-1667H-6659.72V-1663ZM-6619.76 -1663H-6599.78V-1667H-6619.76V-1663ZM-6579.8 -1663H-6559.81V-1667H-6579.8V-1663ZM-6539.83 -1663H-6519.85V-1667H-6539.83V-1663ZM-6499.87 -1663H-6479.89V-1667H-6499.87V-1663ZM-6459.91 -1663H-6439.92V-1667H-6459.91V-1663ZM-6419.94 -1663H-6399.96V-1667H-6419.94V-1663ZM-6379.98 -1663H-6360V-1667H-6379.98V-1663ZM-6340.02 -1663H-6320.03V-1667H-6340.02V-1663ZM-6300.05 -1663H-6280.07V-1667H-6300.05V-1663ZM-6260.09 -1663H-6240.11V-1667H-6260.09V-1663ZM-6220.13 -1663H-6200.14V-1667H-6220.13V-1663ZM-6180.16 -1663H-6160.18V-1667H-6180.16V-1663ZM-6140.2 -1663H-6120.22V-1667H-6140.2V-1663ZM-6100.24 -1663H-6080.25V-1667H-6100.24V-1663ZM-6060.27 -1663H-6040.29V-1667H-6060.27V-1663ZM-6020.31 -1663H-6000.33V-1667H-6020.31V-1663ZM-5980.35 -1663H-5960.36V-1667H-5980.35V-1663ZM-5940.38 -1663H-5920.4V-1667H-5940.38V-1663ZM-5900.42 -1663H-5880.44V-1667H-5900.42V-1663ZM-5860.46 -1663H-5840.47V-1667H-5860.46V-1663ZM-5820.49 -1663H-5800.51V-1667H-5820.49V-1663ZM-5780.53 -1663H-5760.55V-1667H-5780.53V-1663ZM-5740.56 -1663H-5720.58V-1667H-5740.56V-1663ZM-5700.6 -1663H-5680.62V-1667H-5700.6V-1663ZM-5660.64 -1663H-5640.66V-1667H-5660.64V-1663ZM-5620.67 -1663H-5600.69V-1667H-5620.67V-1663ZM-5580.71 -1663H-5560.73V-1667H-5580.71V-1663ZM-5540.75 -1663H-5520.77V-1667H-5540.75V-1663ZM-5500.78 -1663H-5480.8V-1667H-5500.78V-1663ZM-5460.82 -1663H-5440.84V-1667H-5460.82V-1663ZM-5420.86 -1663H-5400.88V-1667H-5420.86V-1663ZM-5380.89 -1663H-5360.91V-1667H-5380.89V-1663ZM-5340.93 -1663H-5320.95V-1667H-5340.93V-1663ZM-5300.97 -1663H-5280.99V-1667H-5300.97V-1663ZM-5261 -1663H-5241.02V-1667H-5261V-1663ZM-5221.04 -1663H-5201.06V-1667H-5221.04V-1663ZM-5181.08 -1663H-5161.1V-1667H-5181.08V-1663ZM-5141.11 -1663H-5121.13V-1667H-5141.11V-1663ZM-5101.15 -1663H-5081.17V-1667H-5101.15V-1663ZM-5061.19 -1663H-5041.21V-1667H-5061.19V-1663ZM-5021.22 -1663H-5001.24V-1667H-5021.22V-1663ZM-4981.26 -1663H-4961.28V-1667H-4981.26V-1663ZM-4941.3 -1663H-4921.32V-1667H-4941.3V-1663ZM-4901.33 -1663H-4881.35V-1667H-4901.33V-1663ZM-4861.37 -1663H-4841.39V-1667H-4861.37V-1663ZM-4821.41 -1663H-4801.43V-1667H-4821.41V-1663ZM-4781.44 -1663H-4761.46V-1667H-4781.44V-1663ZM-4741.48 -1663H-4721.5V-1667H-4741.48V-1663ZM-4701.52 -1663H-4681.54V-1667H-4701.52V-1663ZM-4661.55 -1663H-4641.57V-1667H-4661.55V-1663ZM-4621.59 -1663H-4601.61V-1667H-4621.59V-1663ZM-4581.63 -1663H-4561.65V-1667H-4581.63V-1663ZM-4541.66 -1663H-4521.68V-1667H-4541.66V-1663ZM-4501.7 -1663H-4481.72V-1667H-4501.7V-1663ZM-4461.74 -1663H-4441.76V-1667H-4461.74V-1663ZM-4421.77 -1663H-4401.79V-1667H-4421.77V-1663ZM-4381.81 -1663H-4361.83V-1667H-4381.81V-1663ZM-4341.85 -1663H-4321.86V-1667H-4341.85V-1663ZM-4301.88 -1663H-4281.9V-1667H-4301.88V-1663ZM-4261.92 -1663H-4241.94V-1667H-4261.92V-1663ZM-4221.96 -1663H-4201.97V-1667H-4221.96V-1663ZM-4181.99 -1663H-4162.01V-1667H-4181.99V-1663ZM-4142.03 -1663H-4122.05V-1667H-4142.03V-1663ZM-4102.07 -1663H-4082.08V-1667H-4102.07V-1663ZM-4062.1 -1663H-4042.12V-1667H-4062.1V-1663ZM-4022.14 -1663H-4002.16V-1667H-4022.14V-1663ZM-3982.18 -1663H-3962.19V-1667H-3982.18V-1663ZM-3942.21 -1663H-3922.23V-1667H-3942.21V-1663ZM-3902.25 -1663H-3882.27V-1667H-3902.25V-1663ZM-3862.29 -1663H-3842.3V-1667H-3862.29V-1663ZM-3822.32 -1663H-3802.34V-1667H-3822.32V-1663ZM-3782.36 -1663H-3762.38V-1667H-3782.36V-1663ZM-3742.4 -1663H-3722.41V-1667H-3742.4V-1663ZM-3702.43 -1663H-3682.45V-1667H-3702.43V-1663ZM-3662.47 -1663H-3642.49V-1667H-3662.47V-1663ZM-3622.51 -1663H-3602.52V-1667H-3622.51V-1663ZM-3582.54 -1663H-3562.56V-1667H-3582.54V-1663ZM-3542.58 -1663H-3522.6V-1667H-3542.58V-1663ZM-3502.62 -1663H-3482.63V-1667H-3502.62V-1663ZM-3462.65 -1663H-3442.67V-1667H-3462.65V-1663ZM-3422.69 -1663H-3402.71V-1667H-3422.69V-1663ZM-3382.73 -1663H-3362.74V-1667H-3382.73V-1663ZM-3342.76 -1663H-3322.78V-1667H-3342.76V-1663ZM-3302.8 -1663H-3282.82V-1667H-3302.8V-1663ZM-3262.83 -1663H-3242.85V-1667H-3262.83V-1663ZM-3222.87 -1663H-3202.89V-1667H-3222.87V-1663ZM-3182.91 -1663H-3162.92V-1667H-3182.91V-1663ZM-3142.94 -1663H-3122.96V-1667H-3142.94V-1663ZM-3102.98 -1663H-3083V-1667H-3102.98V-1663ZM-3063.02 -1663H-3043.03V-1667H-3063.02V-1663ZM-3023.05 -1663H-3003.07V-1667H-3023.05V-1663ZM-2983.09 -1663H-2963.11V-1667H-2983.09V-1663ZM-2943.12 -1663H-2923.14V-1667H-2943.12V-1663ZM-2903.16 -1663H-2883.18V-1667H-2903.16V-1663ZM-2863.2 -1663H-2843.21V-1667H-2863.2V-1663ZM-2823.23 -1663H-2803.25V-1667H-2823.23V-1663ZM-2783.27 -1663H-2763.29V-1667H-2783.27V-1663ZM-2743.3 -1663H-2723.32V-1667H-2743.3V-1663ZM-2703.34 -1663H-2683.36V-1667H-2703.34V-1663ZM-2663.38 -1663H-2643.39V-1667H-2663.38V-1663ZM-2623.41 -1663H-2603.43V-1667H-2623.41V-1663ZM-2583.45 -1663H-2563.47V-1667H-2583.45V-1663ZM-2543.48 -1663H-2523.5V-1667H-2543.48V-1663ZM-2503.52 -1663H-2483.54V-1667H-2503.52V-1663ZM-2463.56 -1663H-2443.58V-1667H-2463.56V-1663ZM-2423.59 -1663H-2403.61V-1667H-2423.59V-1663ZM-2383.63 -1663H-2363.65V-1667H-2383.63V-1663ZM-2343.67 -1663H-2323.68V-1667H-2343.67V-1663ZM-2303.7 -1663H-2283.72V-1667H-2303.7V-1663ZM-2263.74 -1663H-2243.76V-1667H-2263.74V-1663ZM-2223.77 -1663H-2203.79V-1667H-2223.77V-1663ZM-2183.81 -1663H-2163.83V-1667H-2183.81V-1663ZM-2143.85 -1663H-2123.86V-1667H-2143.85V-1663ZM-2103.88 -1663H-2083.9V-1667H-2103.88V-1663ZM-2063.92 -1663H-2043.94V-1667H-2063.92V-1663ZM-2023.95 -1663H-2003.97V-1667H-2023.95V-1663ZM-1983.99 -1663H-1964.01V-1667H-1983.99V-1663ZM-1944.03 -1663H-1924.04V-1667H-1944.03V-1663ZM-1904.06 -1663H-1884.08V-1667H-1904.06V-1663ZM-1864.1 -1663H-1844.12V-1667H-1864.1V-1663ZM-1824.14 -1663H-1804.15V-1667H-1824.14V-1663ZM-1784.17 -1663H-1764.19V-1667H-1784.17V-1663ZM-1744.21 -1663H-1724.23V-1667H-1744.21V-1663ZM-1704.24 -1663H-1684.26V-1667H-1704.24V-1663ZM-1664.28 -1663H-1644.3V-1667H-1664.28V-1663ZM-1624.32 -1663H-1604.33V-1667H-1624.32V-1663ZM-1584.35 -1663H-1564.37V-1667H-1584.35V-1663ZM-1544.39 -1663H-1524.41V-1667H-1544.39V-1663ZM-1504.42 -1663H-1484.44V-1667H-1504.42V-1663ZM-1464.46 -1663H-1444.48V-1667H-1464.46V-1663ZM-1424.5 -1663H-1404.51V-1667H-1424.5V-1663ZM-1384.53 -1663H-1364.55V-1667H-1384.53V-1663ZM-1344.57 -1663H-1324.59V-1667H-1344.57V-1663ZM-1304.61 -1663H-1284.62V-1667H-1304.61V-1663ZM-1264.64 -1663H-1244.66V-1667H-1264.64V-1663ZM-1224.68 -1663H-1204.7V-1667H-1224.68V-1663ZM-1184.71 -1663H-1164.73V-1667H-1184.71V-1663ZM-1144.75 -1663H-1124.77V-1667H-1144.75V-1663ZM-1104.79 -1663H-1084.8V-1667H-1104.79V-1663ZM-1064.82 -1663H-1044.84V-1667H-1064.82V-1663ZM-1024.86 -1663H-1004.88V-1667H-1024.86V-1663ZM-984.894 -1663H-964.912V-1667H-984.894V-1663ZM-944.93 -1663H-924.948V-1667H-944.93V-1663ZM-904.966 -1663H-884.985V-1667H-904.966V-1663ZM-865.002 -1663H-845.02V-1667H-865.002V-1663ZM-825.039 -1663H-805.057V-1667H-825.039V-1663ZM-785.075 -1663H-765.093V-1667H-785.075V-1663ZM-745.111 -1663H-725.129V-1667H-745.111V-1663ZM-705.147 -1663H-685.165V-1667H-705.147V-1663ZM-665.183 -1663H-645.201V-1667H-665.183V-1663ZM-625.219 -1663H-605.237V-1667H-625.219V-1663ZM-585.255 -1663H-565.274V-1667H-585.255V-1663ZM-545.291 -1663H-525.309V-1667H-545.291V-1663ZM-505.328 -1663H-485.346V-1667H-505.328V-1663ZM-465.364 -1663H-445.382V-1667H-465.364V-1663ZM-425.4 -1663H-405.418V-1667H-425.4V-1663ZM-385.436 -1663H-365.454V-1667H-385.436V-1663ZM-345.472 -1663H-325.49V-1667H-345.472V-1663ZM-305.509 -1663H-285.526V-1667H-305.509V-1663ZM-265.544 -1663H-245.563V-1667H-265.544V-1663ZM-225.58 -1663H-205.599V-1667H-225.58V-1663ZM-185.617 -1663H-165.634V-1667H-185.617V-1663ZM-145.653 -1663H-125.671V-1667H-145.653V-1663ZM-105.689 -1663H-85.7068V-1667H-105.689V-1663ZM-65.7251 -1663H-45.7435V-1667H-65.7251V-1663ZM-25.761 -1663H-5.7793V-1667H-25.761V-1663ZM14.2024 -1663H34.1849V-1667H14.2024V-1663ZM54.1666 -1663H74.1482V-1667H54.1666V-1663ZM94.1307 -1663H114.112V-1667H94.1307V-1663ZM134.094 -1663H154.077V-1667H134.094V-1663ZM174.058 -1663H194.04V-1667H174.058V-1663ZM214.022 -1663H234.004V-1667H214.022V-1663ZM253.986 -1663H273.967V-1667H253.986V-1663ZM293.95 -1663H313.932V-1667H293.95V-1663ZM333.913 -1663H353.896V-1667H333.913V-1663ZM373.877 -1663H393.859V-1667H373.877V-1663ZM413.842 -1663H433.823V-1667H413.842V-1663ZM453.805 -1663H473.787V-1667H453.805V-1663ZM493.769 -1663H513.751V-1667H493.769V-1663ZM533.733 -1663H553.715V-1667H533.733V-1663ZM573.697 -1663H593.678V-1667H573.697V-1663ZM613.661 -1663H633.643V-1667H613.661V-1663ZM653.624 -1663H673.607V-1667H653.624V-1663ZM693.588 -1663H713.57V-1667H693.588V-1663ZM733.553 -1663H753.534V-1667H733.553V-1663ZM773.516 -1663H793.497V-1667H773.516V-1663ZM813.479 -1663H833.46V-1667H813.479V-1663ZM853.441 -1663H873.423V-1667H853.441V-1663ZM893.404 -1663H913.385V-1667H893.404V-1663ZM933.367 -1663H953.349V-1667H933.367V-1663ZM973.33 -1663H993.311V-1667H973.33V-1663ZM1013.29 -1663H1033.27V-1667H1013.29V-1663ZM1053.26 -1663H1073.24V-1667H1053.26V-1663ZM1093.22 -1663H1113.2V-1667H1093.22V-1663ZM1133.18 -1663H1153.16V-1667H1133.18V-1663ZM1173.14 -1663H1193.13V-1667H1173.14V-1663ZM1213.11 -1663H1233.09V-1667H1213.11V-1663ZM1253.07 -1663H1273.05V-1667H1253.07V-1663ZM1293.03 -1663H1313.01V-1667H1293.03V-1663ZM1333 -1663H1352.98V-1667H1333V-1663ZM1372.96 -1663H1392.94V-1667H1372.96V-1663ZM1412.92 -1663H1432.9V-1667H1412.92V-1663ZM1452.88 -1663H1472.87V-1667H1452.88V-1663ZM1492.85 -1663H1512.83V-1667H1492.85V-1663ZM1532.81 -1663H1552.79V-1667H1532.81V-1663ZM1572.77 -1663H1592.75V-1667H1572.77V-1663ZM1612.74 -1663H1632.72V-1667H1612.74V-1663ZM1652.7 -1663H1672.68V-1667H1652.7V-1663ZM1692.66 -1663H1712.64V-1667H1692.66V-1663ZM1732.63 -1663H1752.61V-1667H1732.63V-1663ZM1772.59 -1663H1792.57V-1667H1772.59V-1663ZM1812.55 -1663H1832.53V-1667H1812.55V-1663ZM1852.51 -1663H1872.5V-1667H1852.51V-1663ZM1892.48 -1663H1912.46V-1667H1892.48V-1663ZM1932.44 -1663H1952.42V-1667H1932.44V-1663ZM1972.4 -1663H1992.38V-1667H1972.4V-1663ZM2012.36 -1663H2032.35V-1667H2012.36V-1663ZM2052.33 -1663H2072.31V-1667H2052.33V-1663ZM2092.29 -1663H2112.27V-1667H2092.29V-1663ZM2132.25 -1663H2152.24V-1667H2132.25V-1663ZM2172.22 -1663H2192.2V-1667H2172.22V-1663ZM2212.18 -1663H2232.16V-1667H2212.18V-1663ZM2252.14 -1663H2272.12V-1667H2252.14V-1663ZM2292.11 -1663H2312.09V-1667H2292.11V-1663ZM2332.07 -1663H2352.05V-1667H2332.07V-1663ZM2372.03 -1663H2392.01V-1667H2372.03V-1663ZM2411.99 -1663H2431.98V-1667H2411.99V-1663ZM2451.96 -1663H2471.94V-1667H2451.96V-1663ZM2491.92 -1663H2511.9V-1667H2491.92V-1663ZM2531.88 -1663H2551.86V-1667H2531.88V-1663ZM2571.85 -1663H2591.83V-1667H2571.85V-1663ZM2611.81 -1663H2631.79V-1667H2611.81V-1663ZM2651.77 -1663H2671.75V-1667H2651.77V-1663ZM2691.73 -1663H2711.72V-1667H2691.73V-1663ZM2731.7 -1663H2751.68V-1667H2731.7V-1663ZM2771.66 -1663H2791.64V-1667H2771.66V-1663ZM2811.62 -1663H2831.6V-1667H2811.62V-1663ZM2851.59 -1663H2871.57V-1667H2851.59V-1663ZM2891.55 -1663H2911.53V-1667H2891.55V-1663ZM2931.51 -1663H2951.49V-1667H2931.51V-1663ZM2971.47 -1663H2991.46V-1667H2971.47V-1663ZM3011.44 -1663H3031.42V-1667H3011.44V-1663ZM3051.4 -1663H3071.38V-1667H3051.4V-1663ZM3091.36 -1663H3111.34V-1667H3091.36V-1663ZM3131.33 -1663H3151.31V-1667H3131.33V-1663ZM3171.29 -1663H3191.27V-1667H3171.29V-1663ZM3211.25 -1663H3231.23V-1667H3211.25V-1663ZM3251.21 -1663H3271.2V-1667H3251.21V-1663ZM3291.18 -1663H3311.16V-1667H3291.18V-1663ZM3331.14 -1663H3351.12V-1667H3331.14V-1663ZM3371.1 -1663H3391.09V-1667H3371.1V-1663ZM3411.07 -1663H3431.05V-1667H3411.07V-1663ZM3451.03 -1663H3471.01V-1667H3451.03V-1663ZM3490.99 -1663H3510.97V-1667H3490.99V-1663ZM3530.96 -1663H3550.94V-1667H3530.96V-1663ZM3570.92 -1663H3590.9V-1667H3570.92V-1663ZM3610.88 -1663H3630.86V-1667H3610.88V-1663ZM3650.84 -1663H3670.83V-1667H3650.84V-1663ZM3690.81 -1663H3710.79V-1667H3690.81V-1663ZM3730.77 -1663H3750.75V-1667H3730.77V-1663ZM3770.73 -1663H3790.71V-1667H3770.73V-1663ZM3810.7 -1663H3830.68V-1667H3810.7V-1663ZM3850.66 -1663H3870.64V-1667H3850.66V-1663ZM3890.62 -1663H3910.6V-1667H3890.62V-1663ZM3930.58 -1663H3950.57V-1667H3930.58V-1663ZM3970.55 -1663H3990.53V-1667H3970.55V-1663ZM4010.51 -1663H4030.49V-1667H4010.51V-1663ZM4050.47 -1663H4070.45V-1667H4050.47V-1663ZM4090.44 -1663H4110.42V-1667H4090.44V-1663ZM4130.4 -1663H4150.38V-1667H4130.4V-1663ZM4170.36 -1663H4190.34V-1667H4170.36V-1663ZM4210.32 -1663H4230.31V-1667H4210.32V-1663ZM4250.29 -1663H4270.27V-1667H4250.29V-1663ZM4290.25 -1663H4310.23V-1667H4290.25V-1663ZM4330.21 -1663H4350.19V-1667H4330.21V-1663ZM4370.18 -1663H4390.16V-1667H4370.18V-1663ZM4410.14 -1663H4430.12V-1667H4410.14V-1663ZM4450.1 -1663H4470.08V-1667H4450.1V-1663ZM4490.06 -1663H4510.05V-1667H4490.06V-1663ZM4530.03 -1663H4550.01V-1667H4530.03V-1663ZM4569.99 -1663H4589.97V-1667H4569.99V-1663ZM4609.95 -1663H4629.93V-1667H4609.95V-1663ZM4649.92 -1663H4669.9V-1667H4649.92V-1663ZM4689.88 -1663H4709.86V-1667H4689.88V-1663ZM4729.84 -1663H4749.82V-1667H4729.84V-1663ZM4769.8 -1663H4789.79V-1667H4769.8V-1663ZM4809.77 -1663H4829.75V-1667H4809.77V-1663ZM4849.73 -1663H4869.71V-1667H4849.73V-1663ZM4889.69 -1663H4909.67V-1667H4889.69V-1663ZM4929.66 -1663H4949.64V-1667H4929.66V-1663ZM4969.62 -1663H4989.6V-1667H4969.62V-1663ZM5009.58 -1663H5029.56V-1667H5009.58V-1663ZM5049.54 -1663H5069.53V-1667H5049.54V-1663ZM5089.51 -1663H5109.49V-1667H5089.51V-1663ZM5129.47 -1663H5149.45V-1667H5129.47V-1663ZM5169.43 -1663H5189.42V-1667H5169.43V-1663ZM5209.4 -1663H5229.38V-1667H5209.4V-1663ZM5249.36 -1663H5269.34V-1667H5249.36V-1663ZM5289.32 -1663H5309.3V-1667H5289.32V-1663ZM5329.29 -1663H5349.27V-1667H5329.29V-1663ZM5369.25 -1663H5389.23V-1667H5369.25V-1663ZM5409.21 -1663H5429.19V-1667H5409.21V-1663ZM5449.17 -1663H5469.16V-1667H5449.17V-1663ZM5489.14 -1663H5509.12V-1667H5489.14V-1663ZM5529.1 -1663H5549.08V-1667H5529.1V-1663ZM5569.06 -1663H5589.04V-1667H5569.06V-1663ZM5609.03 -1663H5629.01V-1667H5609.03V-1663ZM5648.99 -1663H5659V-1667H5648.99V-1663ZM5659 -1663L5659 -1663H5663C5663 -1665.21 5661.21 -1667 5659 -1667V-1663ZM5659 -1663V-1653H5663V-1663H5659ZM5659 -1633V-1613H5663V-1633H5659ZM5659 -1593V-1573H5663V-1593H5659ZM5659 -1553V-1533H5663V-1553H5659ZM5659 -1513V-1493H5663V-1513H5659ZM5659 -1473V-1453H5663V-1473H5659ZM5659 -1433V-1413H5663V-1433H5659ZM5659 -1393V-1373H5663V-1393H5659ZM5659 -1353V-1333H5663V-1353H5659ZM5659 -1313V-1293H5663V-1313H5659ZM5659 -1273V-1253H5663V-1273H5659ZM5659 -1233V-1213H5663V-1233H5659ZM5659 -1193V-1173H5663V-1193H5659ZM5659 -1153V-1133H5663V-1153H5659ZM5659 -1113V-1093H5663V-1113H5659ZM5659 -1073V-1053H5663V-1073H5659ZM5659 -1033V-1013H5663V-1033H5659ZM5659 -993V-973H5663V-993H5659ZM5659 -953V-933H5663V-953H5659ZM5659 -913V-893H5663V-913H5659ZM5659 -873V-853H5663V-873H5659ZM5659 -833V-813H5663V-833H5659ZM5659 -793V-773H5663V-793H5659ZM5659 -753V-733H5663V-753H5659ZM5659 -713V-693H5663V-713H5659ZM5659 -673V-653H5663V-673H5659ZM5659 -633V-613H5663V-633H5659ZM5659 -593V-573H5663V-593H5659ZM5659 -553V-533H5663V-553H5659ZM5659 -513V-493H5663V-513H5659ZM5659 -473V-453H5663V-473H5659ZM5659 -433V-413H5663V-433H5659ZM5659 -393V-373H5663V-393H5659ZM5659 -353V-333H5663V-353H5659ZM5659 -313V-293H5663V-313H5659ZM5659 -273V-253H5663V-273H5659ZM5659 -233V-213H5663V-233H5659ZM5659 -193V-173H5663V-193H5659ZM5659 -153V-133H5663V-153H5659ZM5659 -113V-93H5663V-113H5659ZM5659 -73V-53H5663V-73H5659ZM5659 -33V-13H5663V-33H5659ZM5659 6.99993V26.9999H5663V6.99993H5659ZM5659 46.9999V67H5663V46.9999H5659ZM5659 87V107H5663V87H5659ZM5659 127V147H5663V127H5659ZM5659 167V187H5663V167H5659ZM5659 207V227H5663V207H5659ZM5659 247V267H5663V247H5659ZM5659 287V307H5663V287H5659ZM5659 327V347H5663V327H5659ZM5659 367V387H5663V367H5659ZM5659 407V427H5663V407H5659ZM5659 447V467H5663V447H5659ZM5659 487V507H5663V487H5659ZM5659 527V547H5663V527H5659ZM5659 567V587H5663V567H5659ZM5659 607V627H5663V607H5659ZM5659 647V667H5663V647H5659ZM5659 687V707H5663V687H5659ZM5659 727V747H5663V727H5659ZM5659 767V787H5663V767H5659ZM5659 807V827H5663V807H5659ZM5659 847V867H5663V847H5659ZM5659 887V907H5663V887H5659ZM5659 927V947H5663V927H5659ZM5659 967V987H5663V967H5659ZM5659 1007V1027H5663V1007H5659ZM5659 1047V1067H5663V1047H5659ZM5659 1087V1107H5663V1087H5659ZM5659 1127V1147H5663V1127H5659ZM5659 1167V1187H5663V1167H5659ZM5659 1207V1227H5663V1207H5659ZM5659 1247V1267H5663V1247H5659ZM5659 1287V1307H5663V1287H5659ZM5659 1327V1347H5663V1327H5659ZM5659 1367V1387H5663V1367H5659ZM5659 1407V1427H5663V1407H5659ZM5659 1447V1467H5663V1447H5659ZM5659 1487V1507H5663V1487H5659ZM5659 1527V1547H5663V1527H5659ZM5659 1567V1587H5663V1567H5659ZM5659 1607V1627H5663V1607H5659ZM5659 1647V1667H5663V1647H5659ZM5659 1687V1707H5663V1687H5659ZM5659 1727V1747H5663V1727H5659ZM5659 1767V1787H5663V1767H5659ZM5659 1807V1827H5663V1807H5659ZM5659 1847V1867H5663V1847H5659ZM5659 1887V1907H5663V1887H5659ZM5659 1927V1947H5663V1927H5659ZM5659 1967V1987H5663V1967H5659ZM5659 2007V2027H5663V2007H5659ZM5659 2047V2067H5663V2047H5659ZM5659 2087V2107H5663V2087H5659ZM5659 2127V2147H5663V2127H5659ZM5659 2167V2187H5663V2167H5659ZM5659 2207V2227H5663V2207H5659ZM5659 2247V2267H5663V2247H5659ZM5659 2287V2307H5663V2287H5659ZM5659 2327V2347H5663V2327H5659ZM5659 2367V2387H5663V2367H5659ZM5659 2407V2427H5663V2407H5659ZM5659 2447V2467H5663V2447H5659ZM5659 2487V2507H5663V2487H5659ZM5659 2527V2547H5663V2527H5659ZM5659 2567V2587H5663V2567H5659ZM5659 2607V2627H5663V2607H5659ZM5659 2647V2667H5663V2647H5659ZM5659 2687V2707H5663V2687H5659ZM5659 2727V2747H5663V2727H5659ZM5659 2767V2787H5663V2767H5659ZM5659 2807V2827H5663V2807H5659ZM5659 2847V2867H5663V2847H5659ZM5659 2887V2907H5663V2887H5659ZM5659 2927V2947H5663V2927H5659ZM5659 2967V2987H5663V2967H5659ZM5659 3007V3027H5663V3007H5659ZM5659 3047V3067H5663V3047H5659ZM5659 3087V3107H5663V3087H5659ZM5659 3127V3147H5663V3127H5659ZM5659 3167V3187H5663V3167H5659ZM5659 3207V3227H5663V3207H5659ZM5659 3247V3267H5663V3247H5659ZM5659 3287V3307H5663V3287H5659ZM5659 3327V3347H5663V3327H5659ZM5659 3367V3387H5663V3367H5659ZM5659 3407V3427H5663V3407H5659ZM5659 3447V3467H5663V3447H5659ZM5659 3487V3507H5663V3487H5659ZM5659 3527V3547H5663V3527H5659ZM5659 3567V3587H5663V3567H5659ZM5659 3607V3627H5663V3607H5659ZM5659 3647V3667H5663V3647H5659ZM5659 3687V3707H5663V3687H5659ZM5659 3727V3747H5663V3727H5659ZM5659 3767V3787H5663V3767H5659ZM5659 3807V3827H5663V3807H5659ZM5659 3847V3867H5663V3847H5659ZM5659 3887V3907H5663V3887H5659ZM5659 3927V3947H5663V3927H5659ZM5659 3967V3987H5663V3967H5659ZM5659 4007V4027H5663V4007H5659ZM5659 4047V4067H5663V4047H5659ZM5659 4087V4107H5663V4087H5659ZM5659 4127V4147H5663V4127H5659ZM5659 4167V4187H5663V4167H5659ZM5659 4207V4227H5663V4207H5659ZM5659 4247V4267H5663V4247H5659ZM5659 4287V4307H5663V4287H5659ZM5659 4327V4347H5663V4327H5659ZM5659 4367V4387H5663V4367H5659ZM5659 4407V4427H5663V4407H5659ZM5659 4447V4467H5663V4447H5659ZM5659 4487V4507H5663V4487H5659ZM5659 4527V4547H5663V4527H5659ZM5659 4567V4587H5663V4567H5659ZM5659 4607V4627H5663V4607H5659ZM5659 4647V4667H5663V4647H5659ZM5659 4687V4707H5663V4687H5659ZM5659 4727V4747H5663V4727H5659ZM5659 4767V4787H5663V4767H5659ZM5659 4807V4827H5663V4807H5659ZM5659 4847V4867H5663V4847H5659ZM5659 4887V4907H5663V4887H5659ZM5659 4927V4947H5663V4927H5659ZM5659 4967V4987H5663V4967H5659ZM5659 5007V5027H5663V5007H5659ZM5659 5047V5067H5663V5047H5659ZM5659 5087V5107H5663V5087H5659ZM5659 5127V5147H5663V5127H5659ZM5659 5167V5187H5663V5167H5659ZM5659 5207V5227H5663V5207H5659ZM5659 5247V5267H5663V5247H5659ZM5659 5287V5307H5663V5287H5659ZM5659 5327V5347H5663V5327H5659ZM5659 5367V5387H5663V5367H5659ZM5659 5407V5427H5663V5407H5659ZM5659 5447V5467H5663V5447H5659ZM5659 5487V5497H5663V5487H5659ZM5659 5497L5659 5497V5501C5661.21 5501 5663 5499.21 5663 5497H5659ZM5659 5497H5649.01V5501H5659V5497ZM5629.03 5497H5609.05V5501H5629.03V5497ZM5589.06 5497H5569.08V5501H5589.06V5497ZM5549.1 5497H5529.12V5501H5549.1V5497ZM5509.14 5497H5489.16V5501H5509.14V5497ZM5469.17 5497H5449.19V5501H5469.17V5497ZM5429.21 5497H5409.23V5501H5429.21V5497ZM5389.25 5497H5369.27V5501H5389.25V5497ZM5349.28 5497H5329.3V5501H5349.28V5497ZM5309.32 5497H5289.34V5501H5309.32V5497ZM5269.36 5497H5249.37V5501H5269.36V5497ZM5229.39 5497H5209.41V5501H5229.39V5497ZM5189.43 5497H5169.45V5501H5189.43V5497ZM5149.47 5497H5129.48V5501H5149.47V5497ZM5109.5 5497H5089.52V5501H5109.5V5497ZM5069.54 5497H5049.56V5501H5069.54V5497ZM5029.58 5497H5009.59V5501H5029.58V5497ZM4989.61 5497H4969.63V5501H4989.61V5497ZM4949.65 5497H4929.67V5501H4949.65V5497ZM4909.69 5497H4889.7V5501H4909.69V5497ZM4869.72 5497H4849.74V5501H4869.72V5497ZM4829.76 5497H4809.78V5501H4829.76V5497ZM4789.8 5497H4769.81V5501H4789.8V5497ZM4749.83 5497H4729.85V5501H4749.83V5497ZM4709.87 5497H4689.89V5501H4709.87V5497ZM4669.91 5497H4649.92V5501H4669.91V5497ZM4629.94 5497H4609.96V5501H4629.94V5497ZM4589.98 5497H4570V5501H4589.98V5497ZM4550.02 5497H4530.03V5501H4550.02V5497ZM4510.05 5497H4490.07V5501H4510.05V5497ZM4470.09 5497H4450.11V5501H4470.09V5497ZM4430.13 5497H4410.14V5501H4430.13V5497ZM4390.16 5497H4370.18V5501H4390.16V5497ZM4350.2 5497H4330.22V5501H4350.2V5497ZM4310.24 5497H4290.25V5501H4310.24V5497ZM4270.27 5497H4250.29V5501H4270.27V5497ZM4230.31 5497H4210.33V5501H4230.31V5497ZM4190.35 5497H4170.36V5501H4190.35V5497ZM4150.38 5497H4130.4V5501H4150.38V5497ZM4110.42 5497H4090.44V5501H4110.42V5497ZM4070.46 5497H4050.47V5501H4070.46V5497ZM4030.49 5497H4010.51V5501H4030.49V5497ZM3990.53 5497H3970.55V5501H3990.53V5497ZM3950.56 5497H3930.58V5501H3950.56V5497ZM3910.6 5497H3890.62V5501H3910.6V5497ZM3870.64 5497H3850.66V5501H3870.64V5497ZM3830.67 5497H3810.69V5501H3830.67V5497ZM3790.71 5497H3770.73V5501H3790.71V5497ZM3750.75 5497H3730.77V5501H3750.75V5497ZM3710.78 5497H3690.8V5501H3710.78V5497ZM3670.82 5497H3650.84V5501H3670.82V5497ZM3630.86 5497H3610.88V5501H3630.86V5497ZM3590.89 5497H3570.91V5501H3590.89V5497ZM3550.93 5497H3530.95V5501H3550.93V5497ZM3510.97 5497H3490.99V5501H3510.97V5497ZM3471 5497H3451.02V5501H3471V5497ZM3431.04 5497H3411.06V5501H3431.04V5497ZM3391.08 5497H3371.1V5501H3391.08V5497ZM3351.11 5497H3331.13V5501H3351.11V5497ZM3311.15 5497H3291.17V5501H3311.15V5497ZM3271.19 5497H3251.21V5501H3271.19V5497ZM3231.22 5497H3211.24V5501H3231.22V5497ZM3191.26 5497H3171.28V5501H3191.26V5497ZM3151.3 5497H3131.32V5501H3151.3V5497ZM3111.33 5497H3091.35V5501H3111.33V5497ZM3071.37 5497H3051.39V5501H3071.37V5497ZM3031.41 5497H3011.43V5501H3031.41V5497ZM2991.44 5497H2971.46V5501H2991.44V5497ZM2951.48 5497H2931.5V5501H2951.48V5497ZM2911.52 5497H2891.54V5501H2911.52V5497ZM2871.55 5497H2851.57V5501H2871.55V5497ZM2831.59 5497H2811.61V5501H2831.59V5497ZM2791.63 5497H2771.65V5501H2791.63V5497ZM2751.66 5497H2731.68V5501H2751.66V5497ZM2711.7 5497H2691.72V5501H2711.7V5497ZM2671.74 5497H2651.76V5501H2671.74V5497ZM2631.77 5497H2611.79V5501H2631.77V5497ZM2591.81 5497H2571.83V5501H2591.81V5497ZM2551.85 5497H2531.86V5501H2551.85V5497ZM2511.88 5497H2491.9V5501H2511.88V5497ZM2471.92 5497H2451.94V5501H2471.92V5497ZM2431.96 5497H2411.97V5501H2431.96V5497ZM2391.99 5497H2372.01V5501H2391.99V5497ZM2352.03 5497H2332.05V5501H2352.03V5497ZM2312.07 5497H2292.08V5501H2312.07V5497ZM2272.1 5497H2252.12V5501H2272.1V5497ZM2232.14 5497H2212.16V5501H2232.14V5497ZM2192.18 5497H2172.19V5501H2192.18V5497ZM2152.21 5497H2132.23V5501H2152.21V5497ZM2112.25 5497H2092.27V5501H2112.25V5497ZM2072.29 5497H2052.3V5501H2072.29V5497ZM2032.32 5497H2012.34V5501H2032.32V5497ZM1992.36 5497H1972.38V5501H1992.36V5497ZM1952.4 5497H1932.41V5501H1952.4V5497ZM1912.43 5497H1892.45V5501H1912.43V5497ZM1872.47 5497H1852.49V5501H1872.47V5497ZM1832.51 5497H1812.52V5501H1832.51V5497ZM1792.54 5497H1772.56V5501H1792.54V5497ZM1752.58 5497H1732.6V5501H1752.58V5497ZM1712.62 5497H1692.63V5501H1712.62V5497ZM1672.65 5497H1652.67V5501H1672.65V5497ZM1632.69 5497H1612.71V5501H1632.69V5497ZM1592.73 5497H1572.74V5501H1592.73V5497ZM1552.76 5497H1532.78V5501H1552.76V5497ZM1512.8 5497H1492.82V5501H1512.8V5497ZM1472.83 5497H1452.85V5501H1472.83V5497ZM1432.87 5497H1412.89V5501H1432.87V5497ZM1392.91 5497H1372.92V5501H1392.91V5497ZM1352.94 5497H1332.96V5501H1352.94V5497ZM1312.98 5497H1293V5501H1312.98V5497ZM1273.02 5497H1253.03V5501H1273.02V5497ZM1233.05 5497H1213.07V5501H1233.05V5497ZM1193.09 5497H1173.11V5501H1193.09V5497ZM1153.12 5497H1133.14V5501H1153.12V5497ZM1113.16 5497H1093.18V5501H1113.16V5497ZM1073.2 5497H1053.21V5501H1073.2V5497ZM1033.23 5497H1013.25V5501H1033.23V5497ZM993.268 5497H973.286V5501H993.268V5497ZM953.304 5497H933.322V5501H953.304V5497ZM913.34 5497H893.358V5501H913.34V5497ZM873.376 5497H853.395V5501H873.376V5497ZM833.413 5497H813.431V5501H833.413V5497ZM793.449 5497H773.467V5501H793.449V5497ZM753.485 5497H733.503V5501H753.485V5497ZM713.521 5497H693.539V5501H713.521V5497ZM673.557 5497H653.575V5501H673.557V5497ZM633.593 5497H613.611V5501H633.593V5497ZM593.63 5497H573.647V5501H593.63V5497ZM553.665 5497H533.684V5501H553.665V5497ZM513.702 5497H493.72V5501H513.702V5497ZM473.738 5497H453.756V5501H473.738V5497ZM433.774 5497H413.792V5501H433.774V5497ZM393.81 5497H373.828V5501H393.81V5497ZM353.846 5497H333.864V5501H353.846V5497ZM313.882 5497H293.9V5501H313.882V5497ZM273.919 5497H253.937V5501H273.919V5497ZM233.954 5497H213.973V5501H233.954V5497ZM193.991 5497H174.009V5501H193.991V5497ZM154.027 5497H134.045V5501H154.027V5497ZM114.063 5497H94.081V5501H114.063V5497ZM74.099 5497H54.1173V5501H74.099V5497ZM34.1352 5497H14.1531V5501H34.1352V5497ZM-5.82857 5497H-25.8106V5501H-5.82857V5497ZM-45.7923 5497H-65.7744V5501H-45.7923V5497ZM-85.7565 5497H-105.738V5501H-85.7565V5497ZM-125.72 5497H-145.702V5501H-125.72V5497ZM-165.684 5497H-185.666V5501H-165.684V5497ZM-205.648 5497H-225.63V5501H-205.648V5497ZM-245.612 5497H-265.594V5501H-245.612V5497ZM-285.576 5497H-305.558V5501H-285.576V5497ZM-325.539 5497H-345.522V5501H-325.539V5497ZM-365.503 5497H-385.485V5501H-365.503V5497ZM-405.467 5497H-425.449V5501H-405.467V5497ZM-445.431 5497H-465.413V5501H-445.431V5497ZM-485.395 5497H-505.377V5501H-485.395V5497ZM-525.359 5497H-545.341V5501H-525.359V5497ZM-565.323 5497H-585.305V5501H-565.323V5497ZM-605.287 5497H-625.269V5501H-605.287V5497ZM-645.25 5497H-665.232V5501H-645.25V5497ZM-685.215 5497H-705.196V5501H-685.215V5497ZM-725.178 5497H-745.16V5501H-725.178V5497ZM-765.142 5497H-785.124V5501H-765.142V5497ZM-805.106 5497H-825.088V5501H-805.106V5497ZM-845.07 5497H-865.052V5501H-845.07V5497ZM-885.034 5497H-905.015V5501H-885.034V5497ZM-924.998 5497H-944.98V5501H-924.998V5497ZM-964.961 5497H-984.943V5501H-964.961V5497ZM-1004.93 5497H-1024.91V5501H-1004.93V5497ZM-1044.89 5497H-1064.87V5501H-1044.89V5497ZM-1084.85 5497H-1104.83V5501H-1084.85V5497ZM-1124.82 5497H-1144.8V5501H-1124.82V5497ZM-1164.78 5497H-1184.76V5501H-1164.78V5497ZM-1204.74 5497H-1224.73V5501H-1204.74V5497ZM-1244.71 5497H-1264.69V5501H-1244.71V5497ZM-1284.67 5497H-1304.65V5501H-1284.67V5497ZM-1324.64 5497H-1344.62V5501H-1324.64V5497ZM-1364.6 5497H-1384.58V5501H-1364.6V5497ZM-1404.56 5497H-1424.55V5501H-1404.56V5497ZM-1444.53 5497H-1464.51V5501H-1444.53V5497ZM-1484.49 5497H-1504.47V5501H-1484.49V5497ZM-1524.46 5497H-1544.44V5501H-1524.46V5497ZM-1564.42 5497H-1584.4V5501H-1564.42V5497ZM-1604.38 5497H-1624.37V5501H-1604.38V5497ZM-1644.35 5497H-1664.33V5501H-1644.35V5497ZM-1684.31 5497H-1704.29V5501H-1684.31V5497ZM-1724.27 5497H-1744.26V5501H-1724.27V5497ZM-1764.24 5497H-1784.22V5501H-1764.24V5497ZM-1804.2 5497H-1824.18V5501H-1804.2V5497ZM-1844.17 5497H-1864.15V5501H-1844.17V5497ZM-1884.13 5497H-1904.11V5501H-1884.13V5497ZM-1924.09 5497H-1944.08V5501H-1924.09V5497ZM-1964.06 5497H-1984.04V5501H-1964.06V5497ZM-2004.02 5497H-2024V5501H-2004.02V5497ZM-2043.99 5497H-2063.97V5501H-2043.99V5497ZM-2083.95 5497H-2103.93V5501H-2083.95V5497ZM-2123.91 5497H-2143.9V5501H-2123.91V5497ZM-2163.88 5497H-2183.86V5501H-2163.88V5497ZM-2203.84 5497H-2223.82V5501H-2203.84V5497ZM-2243.81 5497H-2263.79V5501H-2243.81V5497ZM-2283.77 5497H-2303.75V5501H-2283.77V5497ZM-2323.73 5497H-2343.72V5501H-2323.73V5497ZM-2363.7 5497H-2383.68V5501H-2363.7V5497ZM-2403.66 5497H-2423.64V5501H-2403.66V5497ZM-2443.62 5497H-2463.61V5501H-2443.62V5497ZM-2483.59 5497H-2503.57V5501H-2483.59V5497ZM-2523.55 5497H-2543.53V5501H-2523.55V5497ZM-2563.52 5497H-2583.5V5501H-2563.52V5497ZM-2603.48 5497H-2623.46V5501H-2603.48V5497ZM-2643.44 5497H-2663.42V5501H-2643.44V5497ZM-2683.4 5497H-2703.39V5501H-2683.4V5497ZM-2723.37 5497H-2743.35V5501H-2723.37V5497ZM-2763.33 5497H-2783.31V5501H-2763.33V5497ZM-2803.29 5497H-2823.27V5501H-2803.29V5497ZM-2843.26 5497H-2863.24V5501H-2843.26V5497ZM-2883.22 5497H-2903.2V5501H-2883.22V5497ZM-2923.18 5497H-2943.16V5501H-2923.18V5497ZM-2963.14 5497H-2983.13V5501H-2963.14V5497ZM-3003.11 5497H-3023.09V5501H-3003.11V5497ZM-3043.07 5497H-3063.05V5501H-3043.07V5497ZM-3083.03 5497H-3103.01V5501H-3083.03V5497ZM-3123 5497H-3142.98V5501H-3123V5497ZM-3162.96 5497H-3182.94V5501H-3162.96V5497ZM-3202.92 5497H-3222.9V5501H-3202.92V5497ZM-3242.88 5497H-3262.87V5501H-3242.88V5497ZM-3282.85 5497H-3302.83V5501H-3282.85V5497ZM-3322.81 5497H-3342.79V5501H-3322.81V5497ZM-3362.77 5497H-3382.75V5501H-3362.77V5497ZM-3402.74 5497H-3422.72V5501H-3402.74V5497ZM-3442.7 5497H-3462.68V5501H-3442.7V5497ZM-3482.66 5497H-3502.64V5501H-3482.66V5497ZM-3522.63 5497H-3542.61V5501H-3522.63V5497ZM-3562.59 5497H-3582.57V5501H-3562.59V5497ZM-3602.55 5497H-3622.53V5501H-3602.55V5497ZM-3642.51 5497H-3662.5V5501H-3642.51V5497ZM-3682.48 5497H-3702.46V5501H-3682.48V5497ZM-3722.44 5497H-3742.42V5501H-3722.44V5497ZM-3762.4 5497H-3782.38V5501H-3762.4V5497ZM-3802.36 5497H-3822.35V5501H-3802.36V5497ZM-3842.33 5497H-3862.31V5501H-3842.33V5497ZM-3882.29 5497H-3902.27V5501H-3882.29V5497ZM-3922.25 5497H-3942.24V5501H-3922.25V5497ZM-3962.22 5497H-3982.2V5501H-3962.22V5497ZM-4002.18 5497H-4022.16V5501H-4002.18V5497ZM-4042.14 5497H-4062.12V5501H-4042.14V5497ZM-4082.11 5497H-4102.09V5501H-4082.11V5497ZM-4122.07 5497H-4142.05V5501H-4122.07V5497ZM-4162.03 5497H-4182.01V5501H-4162.03V5497ZM-4201.99 5497H-4221.98V5501H-4201.99V5497ZM-4241.96 5497H-4261.94V5501H-4241.96V5497ZM-4281.92 5497H-4301.9V5501H-4281.92V5497ZM-4321.88 5497H-4341.86V5501H-4321.88V5497ZM-4361.85 5497H-4381.83V5501H-4361.85V5497ZM-4401.81 5497H-4421.79V5501H-4401.81V5497ZM-4441.77 5497H-4461.75V5501H-4441.77V5497ZM-4481.73 5497H-4501.72V5501H-4481.73V5497ZM-4521.7 5497H-4541.68V5501H-4521.7V5497ZM-4561.66 5497H-4581.64V5501H-4561.66V5497ZM-4601.62 5497H-4621.6V5501H-4601.62V5497ZM-4641.59 5497H-4661.57V5501H-4641.59V5497ZM-4681.55 5497H-4701.53V5501H-4681.55V5497ZM-4721.51 5497H-4741.49V5501H-4721.51V5497ZM-4761.47 5497H-4781.46V5501H-4761.47V5497ZM-4801.44 5497H-4821.42V5501H-4801.44V5497ZM-4841.4 5497H-4861.38V5501H-4841.4V5497ZM-4881.36 5497H-4901.34V5501H-4881.36V5497ZM-4921.33 5497H-4941.31V5501H-4921.33V5497ZM-4961.29 5497H-4981.27V5501H-4961.29V5497ZM-5001.25 5497H-5021.23V5501H-5001.25V5497ZM-5041.21 5497H-5061.2V5501H-5041.21V5497ZM-5081.18 5497H-5101.16V5501H-5081.18V5497ZM-5121.14 5497H-5141.12V5501H-5121.14V5497ZM-5161.1 5497H-5181.09V5501H-5161.1V5497ZM-5201.07 5497H-5221.05V5501H-5201.07V5497ZM-5241.03 5497H-5261.01V5501H-5241.03V5497ZM-5280.99 5497H-5300.97V5501H-5280.99V5497ZM-5320.96 5497H-5340.94V5501H-5320.96V5497ZM-5360.92 5497H-5380.9V5501H-5360.92V5497ZM-5400.88 5497H-5420.86V5501H-5400.88V5497ZM-5440.84 5497H-5460.83V5501H-5440.84V5497ZM-5480.81 5497H-5500.79V5501H-5480.81V5497ZM-5520.77 5497H-5540.75V5501H-5520.77V5497ZM-5560.73 5497H-5580.71V5501H-5560.73V5497ZM-5600.7 5497H-5620.68V5501H-5600.7V5497ZM-5640.66 5497H-5660.64V5501H-5640.66V5497ZM-5680.62 5497H-5700.6V5501H-5680.62V5497ZM-5720.58 5497H-5740.57V5501H-5720.58V5497ZM-5760.55 5497H-5780.53V5501H-5760.55V5497ZM-5800.51 5497H-5820.49V5501H-5800.51V5497ZM-5840.47 5497H-5860.45V5501H-5840.47V5497ZM-5880.44 5497H-5900.42V5501H-5880.44V5497ZM-5920.4 5497H-5940.38V5501H-5920.4V5497ZM-5960.36 5497H-5980.34V5501H-5960.36V5497ZM-6000.32 5497H-6020.31V5501H-6000.32V5497ZM-6040.29 5497H-6060.27V5501H-6040.29V5497ZM-6080.25 5497H-6100.23V5501H-6080.25V5497ZM-6120.21 5497H-6140.19V5501H-6120.21V5497ZM-6160.18 5497H-6180.16V5501H-6160.18V5497ZM-6200.14 5497H-6220.12V5501H-6200.14V5497ZM-6240.1 5497H-6260.08V5501H-6240.1V5497ZM-6280.06 5497H-6300.05V5501H-6280.06V5497ZM-6320.03 5497H-6340.01V5501H-6320.03V5497ZM-6359.99 5497H-6379.97V5501H-6359.99V5497ZM-6399.95 5497H-6419.93V5501H-6399.95V5497ZM-6439.92 5497H-6459.9V5501H-6439.92V5497ZM-6479.88 5497H-6499.86V5501H-6479.88V5497ZM-6519.84 5497H-6539.82V5501H-6519.84V5497ZM-6559.8 5497H-6579.79V5501H-6559.8V5497ZM-6599.77 5497H-6619.75V5501H-6599.77V5497ZM-6639.73 5497H-6659.71V5501H-6639.73V5497ZM-6679.69 5497H-6699.67V5501H-6679.69V5497ZM-6719.66 5497H-6739.64V5501H-6719.66V5497ZM-6759.62 5497H-6779.6V5501H-6759.62V5497ZM-6799.58 5497H-6819.56V5501H-6799.58V5497ZM-6839.54 5497H-6859.53V5501H-6839.54V5497ZM-6879.51 5497H-6899.49V5501H-6879.51V5497ZM-6919.47 5497H-6939.45V5501H-6919.47V5497ZM-6959.43 5497H-6979.42V5501H-6959.43V5497ZM-6999.4 5497H-7019.38V5501H-6999.4V5497ZM-7039.36 5497H-7059.34V5501H-7039.36V5497ZM-7079.32 5497H-7099.3V5501H-7079.32V5497ZM-7119.29 5497H-7139.27V5501H-7119.29V5497ZM-7159.25 5497H-7179.23V5501H-7159.25V5497ZM-7199.21 5497H-7219.19V5501H-7199.21V5497ZM-7239.17 5497H-7259.16V5501H-7239.17V5497ZM-7279.14 5497H-7299.12V5501H-7279.14V5497ZM-7319.1 5497H-7339.08V5501H-7319.1V5497ZM-7359.06 5497H-7379.04V5501H-7359.06V5497ZM-7399.03 5497H-7419.01V5501H-7399.03V5497ZM-7438.99 5497H-7449V5501H-7438.99V5497ZM-7449 5495C-7447.9 5495 -7447 5495.9 -7447 5497H-7455C-7455 5500.31 -7452.31 5503 -7449 5503V5495ZM-7447 5497V5487H-7455V5497H-7447ZM-7447 5467V5447H-7455V5467H-7447ZM-7447 5427V5407H-7455V5427H-7447ZM-7447 5387V5367H-7455V5387H-7447ZM-7447 5347V5327H-7455V5347H-7447ZM-7447 5307V5287H-7455V5307H-7447ZM-7447 5267V5247H-7455V5267H-7447ZM-7447 5227V5207H-7455V5227H-7447ZM-7447 5187V5167H-7455V5187H-7447ZM-7447 5147V5127H-7455V5147H-7447ZM-7447 5107V5087H-7455V5107H-7447ZM-7447 5067V5047H-7455V5067H-7447ZM-7447 5027V5007H-7455V5027H-7447ZM-7447 4987V4967H-7455V4987H-7447ZM-7447 4947V4927H-7455V4947H-7447ZM-7447 4907V4887H-7455V4907H-7447ZM-7447 4867V4847H-7455V4867H-7447ZM-7447 4827V4807H-7455V4827H-7447ZM-7447 4787V4767H-7455V4787H-7447ZM-7447 4747V4727H-7455V4747H-7447ZM-7447 4707V4687H-7455V4707H-7447ZM-7447 4667V4647H-7455V4667H-7447ZM-7447 4627V4607H-7455V4627H-7447ZM-7447 4587V4567H-7455V4587H-7447ZM-7447 4547V4527H-7455V4547H-7447ZM-7447 4507V4487H-7455V4507H-7447ZM-7447 4467V4447H-7455V4467H-7447ZM-7447 4427V4407H-7455V4427H-7447ZM-7447 4387V4367H-7455V4387H-7447ZM-7447 4347V4327H-7455V4347H-7447ZM-7447 4307V4287H-7455V4307H-7447ZM-7447 4267V4247H-7455V4267H-7447ZM-7447 4227V4207H-7455V4227H-7447ZM-7447 4187V4167H-7455V4187H-7447ZM-7447 4147V4127H-7455V4147H-7447ZM-7447 4107V4087H-7455V4107H-7447ZM-7447 4067V4047H-7455V4067H-7447ZM-7447 4027V4007H-7455V4027H-7447ZM-7447 3987V3967H-7455V3987H-7447ZM-7447 3947V3927H-7455V3947H-7447ZM-7447 3907V3887H-7455V3907H-7447ZM-7447 3867V3847H-7455V3867H-7447ZM-7447 3827V3807H-7455V3827H-7447ZM-7447 3787V3767H-7455V3787H-7447ZM-7447 3747V3727H-7455V3747H-7447ZM-7447 3707V3687H-7455V3707H-7447ZM-7447 3667V3647H-7455V3667H-7447ZM-7447 3627V3607H-7455V3627H-7447ZM-7447 3587V3567H-7455V3587H-7447ZM-7447 3547V3527H-7455V3547H-7447ZM-7447 3507V3487H-7455V3507H-7447ZM-7447 3467V3447H-7455V3467H-7447ZM-7447 3427V3407H-7455V3427H-7447ZM-7447 3387V3367H-7455V3387H-7447ZM-7447 3347V3327H-7455V3347H-7447ZM-7447 3307V3287H-7455V3307H-7447ZM-7447 3267V3247H-7455V3267H-7447ZM-7447 3227V3207H-7455V3227H-7447ZM-7447 3187V3167H-7455V3187H-7447ZM-7447 3147V3127H-7455V3147H-7447ZM-7447 3107V3087H-7455V3107H-7447ZM-7447 3067V3047H-7455V3067H-7447ZM-7447 3027V3007H-7455V3027H-7447ZM-7447 2987V2967H-7455V2987H-7447ZM-7447 2947V2927H-7455V2947H-7447ZM-7447 2907V2887H-7455V2907H-7447ZM-7447 2867V2847H-7455V2867H-7447ZM-7447 2827V2807H-7455V2827H-7447ZM-7447 2787V2767H-7455V2787H-7447ZM-7447 2747V2727H-7455V2747H-7447ZM-7447 2707V2687H-7455V2707H-7447ZM-7447 2667V2647H-7455V2667H-7447ZM-7447 2627V2607H-7455V2627H-7447ZM-7447 2587V2567H-7455V2587H-7447ZM-7447 2547V2527H-7455V2547H-7447ZM-7447 2507V2487H-7455V2507H-7447ZM-7447 2467V2447H-7455V2467H-7447ZM-7447 2427V2407H-7455V2427H-7447ZM-7447 2387V2367H-7455V2387H-7447ZM-7447 2347V2327H-7455V2347H-7447ZM-7447 2307V2287H-7455V2307H-7447ZM-7447 2267V2247H-7455V2267H-7447ZM-7447 2227V2207H-7455V2227H-7447ZM-7447 2187V2167H-7455V2187H-7447ZM-7447 2147V2127H-7455V2147H-7447ZM-7447 2107V2087H-7455V2107H-7447ZM-7447 2067V2047H-7455V2067H-7447ZM-7447 2027V2007H-7455V2027H-7447ZM-7447 1987V1967H-7455V1987H-7447ZM-7447 1947V1927H-7455V1947H-7447ZM-7447 1907V1887H-7455V1907H-7447ZM-7447 1867V1847H-7455V1867H-7447ZM-7447 1827V1807H-7455V1827H-7447ZM-7447 1787V1767H-7455V1787H-7447ZM-7447 1747V1727H-7455V1747H-7447ZM-7447 1707V1687H-7455V1707H-7447ZM-7447 1667V1647H-7455V1667H-7447ZM-7447 1627V1607H-7455V1627H-7447ZM-7447 1587V1567H-7455V1587H-7447ZM-7447 1547V1527H-7455V1547H-7447ZM-7447 1507V1487H-7455V1507H-7447ZM-7447 1467V1447H-7455V1467H-7447ZM-7447 1427V1407H-7455V1427H-7447ZM-7447 1387V1367H-7455V1387H-7447ZM-7447 1347V1327H-7455V1347H-7447ZM-7447 1307V1287H-7455V1307H-7447ZM-7447 1267V1247H-7455V1267H-7447ZM-7447 1227V1207H-7455V1227H-7447ZM-7447 1187V1167H-7455V1187H-7447ZM-7447 1147V1127H-7455V1147H-7447ZM-7447 1107V1087H-7455V1107H-7447ZM-7447 1067V1047H-7455V1067H-7447ZM-7447 1027V1007H-7455V1027H-7447ZM-7447 987V967H-7455V987H-7447ZM-7447 947V927H-7455V947H-7447ZM-7447 907V887H-7455V907H-7447ZM-7447 867V847H-7455V867H-7447ZM-7447 827V807H-7455V827H-7447ZM-7447 787V767H-7455V787H-7447ZM-7447 747V727H-7455V747H-7447ZM-7447 707V687H-7455V707H-7447ZM-7447 667V647H-7455V667H-7447ZM-7447 627V607H-7455V627H-7447ZM-7447 587V567H-7455V587H-7447ZM-7447 547V527H-7455V547H-7447ZM-7447 507V487H-7455V507H-7447ZM-7447 467V447H-7455V467H-7447ZM-7447 427V407H-7455V427H-7447ZM-7447 387V367H-7455V387H-7447ZM-7447 347V327H-7455V347H-7447ZM-7447 307V287H-7455V307H-7447ZM-7447 267V247H-7455V267H-7447ZM-7447 227V207H-7455V227H-7447ZM-7447 187V167H-7455V187H-7447ZM-7447 147V127H-7455V147H-7447ZM-7447 107V87.0003H-7455V107H-7447ZM-7447 67.0002V47H-7455V67.0002H-7447ZM-7447 26.9999V7.00025H-7455V26.9999H-7447ZM-7447 -12.9999V-33H-7455V-12.9999H-7447ZM-7447 -53.0001V-72.9998H-7455V-53.0001H-7447ZM-7447 -92.9999V-113H-7455V-92.9999H-7447ZM-7447 -133V-153H-7455V-133H-7447ZM-7447 -173V-193H-7455V-173H-7447ZM-7447 -213V-233H-7455V-213H-7447ZM-7447 -253V-273H-7455V-253H-7447ZM-7447 -293V-313H-7455V-293H-7447ZM-7447 -333V-353H-7455V-333H-7447ZM-7447 -373V-393H-7455V-373H-7447ZM-7447 -413V-433H-7455V-413H-7447ZM-7447 -453V-473H-7455V-453H-7447ZM-7447 -493V-513H-7455V-493H-7447ZM-7447 -533V-553H-7455V-533H-7447ZM-7447 -573V-593H-7455V-573H-7447ZM-7447 -613V-633H-7455V-613H-7447ZM-7447 -653V-673H-7455V-653H-7447ZM-7447 -693V-713H-7455V-693H-7447ZM-7447 -733V-753H-7455V-733H-7447ZM-7447 -773V-793H-7455V-773H-7447ZM-7447 -813V-833H-7455V-813H-7447ZM-7447 -853V-873H-7455V-853H-7447ZM-7447 -893V-913H-7455V-893H-7447ZM-7447 -933V-953H-7455V-933H-7447ZM-7447 -973V-993H-7455V-973H-7447ZM-7447 -1013V-1033H-7455V-1013H-7447ZM-7447 -1053V-1073H-7455V-1053H-7447ZM-7447 -1093V-1113H-7455V-1093H-7447ZM-7447 -1133V-1153H-7455V-1133H-7447ZM-7447 -1173V-1193H-7455V-1173H-7447ZM-7447 -1213V-1233H-7455V-1213H-7447ZM-7447 -1253V-1273H-7455V-1253H-7447ZM-7447 -1293V-1313H-7455V-1293H-7447ZM-7447 -1333V-1353H-7455V-1333H-7447ZM-7447 -1373V-1393H-7455V-1373H-7447ZM-7447 -1413V-1433H-7455V-1413H-7447ZM-7447 -1453V-1473H-7455V-1453H-7447ZM-7447 -1493V-1513H-7455V-1493H-7447ZM-7447 -1533V-1553H-7455V-1533H-7447ZM-7447 -1573V-1593H-7455V-1573H-7447ZM-7447 -1613V-1633H-7455V-1613H-7447ZM-7447 -1653V-1663H-7455V-1653H-7447ZM-7447 -1663C-7447 -1661.9 -7447.9 -1661 -7449 -1661V-1669C-7452.31 -1669 -7455 -1666.31 -7455 -1663H-7447ZM-7449 -1661H-7439.01V-1669H-7449V-1661ZM-7419.03 -1661H-7399.05V-1669H-7419.03V-1661ZM-7379.06 -1661H-7359.08V-1669H-7379.06V-1661ZM-7339.1 -1661H-7319.12V-1669H-7339.1V-1661ZM-7299.14 -1661H-7279.16V-1669H-7299.14V-1661ZM-7259.17 -1661H-7239.19V-1669H-7259.17V-1661ZM-7219.21 -1661H-7199.23V-1669H-7219.21V-1661ZM-7179.25 -1661H-7159.27V-1669H-7179.25V-1661ZM-7139.28 -1661H-7119.3V-1669H-7139.28V-1661ZM-7099.32 -1661H-7079.34V-1669H-7099.32V-1661ZM-7059.36 -1661H-7039.37V-1669H-7059.36V-1661ZM-7019.39 -1661H-6999.41V-1669H-7019.39V-1661ZM-6979.43 -1661H-6959.45V-1669H-6979.43V-1661ZM-6939.47 -1661H-6919.48V-1669H-6939.47V-1661ZM-6899.5 -1661H-6879.52V-1669H-6899.5V-1661ZM-6859.54 -1661H-6839.56V-1669H-6859.54V-1661ZM-6819.58 -1661H-6799.59V-1669H-6819.58V-1661ZM-6779.61 -1661H-6759.63V-1669H-6779.61V-1661ZM-6739.65 -1661H-6719.67V-1669H-6739.65V-1661ZM-6699.69 -1661H-6679.7V-1669H-6699.69V-1661ZM-6659.72 -1661H-6639.74V-1669H-6659.72V-1661ZM-6619.76 -1661H-6599.78V-1669H-6619.76V-1661ZM-6579.8 -1661H-6559.81V-1669H-6579.8V-1661ZM-6539.83 -1661H-6519.85V-1669H-6539.83V-1661ZM-6499.87 -1661H-6479.89V-1669H-6499.87V-1661ZM-6459.91 -1661H-6439.92V-1669H-6459.91V-1661ZM-6419.94 -1661H-6399.96V-1669H-6419.94V-1661ZM-6379.98 -1661H-6360V-1669H-6379.98V-1661ZM-6340.02 -1661H-6320.03V-1669H-6340.02V-1661ZM-6300.05 -1661H-6280.07V-1669H-6300.05V-1661ZM-6260.09 -1661H-6240.11V-1669H-6260.09V-1661ZM-6220.13 -1661H-6200.14V-1669H-6220.13V-1661ZM-6180.16 -1661H-6160.18V-1669H-6180.16V-1661ZM-6140.2 -1661H-6120.22V-1669H-6140.2V-1661ZM-6100.24 -1661H-6080.25V-1669H-6100.24V-1661ZM-6060.27 -1661H-6040.29V-1669H-6060.27V-1661ZM-6020.31 -1661H-6000.33V-1669H-6020.31V-1661ZM-5980.35 -1661H-5960.36V-1669H-5980.35V-1661ZM-5940.38 -1661H-5920.4V-1669H-5940.38V-1661ZM-5900.42 -1661H-5880.44V-1669H-5900.42V-1661ZM-5860.46 -1661H-5840.47V-1669H-5860.46V-1661ZM-5820.49 -1661H-5800.51V-1669H-5820.49V-1661ZM-5780.53 -1661H-5760.55V-1669H-5780.53V-1661ZM-5740.56 -1661H-5720.58V-1669H-5740.56V-1661ZM-5700.6 -1661H-5680.62V-1669H-5700.6V-1661ZM-5660.64 -1661H-5640.66V-1669H-5660.64V-1661ZM-5620.67 -1661H-5600.69V-1669H-5620.67V-1661ZM-5580.71 -1661H-5560.73V-1669H-5580.71V-1661ZM-5540.75 -1661H-5520.77V-1669H-5540.75V-1661ZM-5500.78 -1661H-5480.8V-1669H-5500.78V-1661ZM-5460.82 -1661H-5440.84V-1669H-5460.82V-1661ZM-5420.86 -1661H-5400.88V-1669H-5420.86V-1661ZM-5380.89 -1661H-5360.91V-1669H-5380.89V-1661ZM-5340.93 -1661H-5320.95V-1669H-5340.93V-1661ZM-5300.97 -1661H-5280.99V-1669H-5300.97V-1661ZM-5261 -1661H-5241.02V-1669H-5261V-1661ZM-5221.04 -1661H-5201.06V-1669H-5221.04V-1661ZM-5181.08 -1661H-5161.1V-1669H-5181.08V-1661ZM-5141.11 -1661H-5121.13V-1669H-5141.11V-1661ZM-5101.15 -1661H-5081.17V-1669H-5101.15V-1661ZM-5061.19 -1661H-5041.21V-1669H-5061.19V-1661ZM-5021.22 -1661H-5001.24V-1669H-5021.22V-1661ZM-4981.26 -1661H-4961.28V-1669H-4981.26V-1661ZM-4941.3 -1661H-4921.32V-1669H-4941.3V-1661ZM-4901.33 -1661H-4881.35V-1669H-4901.33V-1661ZM-4861.37 -1661H-4841.39V-1669H-4861.37V-1661ZM-4821.41 -1661H-4801.43V-1669H-4821.41V-1661ZM-4781.44 -1661H-4761.46V-1669H-4781.44V-1661ZM-4741.48 -1661H-4721.5V-1669H-4741.48V-1661ZM-4701.52 -1661H-4681.54V-1669H-4701.52V-1661ZM-4661.55 -1661H-4641.57V-1669H-4661.55V-1661ZM-4621.59 -1661H-4601.61V-1669H-4621.59V-1661ZM-4581.63 -1661H-4561.65V-1669H-4581.63V-1661ZM-4541.66 -1661H-4521.68V-1669H-4541.66V-1661ZM-4501.7 -1661H-4481.72V-1669H-4501.7V-1661ZM-4461.74 -1661H-4441.76V-1669H-4461.74V-1661ZM-4421.77 -1661H-4401.79V-1669H-4421.77V-1661ZM-4381.81 -1661H-4361.83V-1669H-4381.81V-1661ZM-4341.85 -1661H-4321.86V-1669H-4341.85V-1661ZM-4301.88 -1661H-4281.9V-1669H-4301.88V-1661ZM-4261.92 -1661H-4241.94V-1669H-4261.92V-1661ZM-4221.96 -1661H-4201.97V-1669H-4221.96V-1661ZM-4181.99 -1661H-4162.01V-1669H-4181.99V-1661ZM-4142.03 -1661H-4122.05V-1669H-4142.03V-1661ZM-4102.07 -1661H-4082.08V-1669H-4102.07V-1661ZM-4062.1 -1661H-4042.12V-1669H-4062.1V-1661ZM-4022.14 -1661H-4002.16V-1669H-4022.14V-1661ZM-3982.18 -1661H-3962.19V-1669H-3982.18V-1661ZM-3942.21 -1661H-3922.23V-1669H-3942.21V-1661ZM-3902.25 -1661H-3882.27V-1669H-3902.25V-1661ZM-3862.29 -1661H-3842.3V-1669H-3862.29V-1661ZM-3822.32 -1661H-3802.34V-1669H-3822.32V-1661ZM-3782.36 -1661H-3762.38V-1669H-3782.36V-1661ZM-3742.4 -1661H-3722.41V-1669H-3742.4V-1661ZM-3702.43 -1661H-3682.45V-1669H-3702.43V-1661ZM-3662.47 -1661H-3642.49V-1669H-3662.47V-1661ZM-3622.51 -1661H-3602.52V-1669H-3622.51V-1661ZM-3582.54 -1661H-3562.56V-1669H-3582.54V-1661ZM-3542.58 -1661H-3522.6V-1669H-3542.58V-1661ZM-3502.62 -1661H-3482.63V-1669H-3502.62V-1661ZM-3462.65 -1661H-3442.67V-1669H-3462.65V-1661ZM-3422.69 -1661H-3402.71V-1669H-3422.69V-1661ZM-3382.73 -1661H-3362.74V-1669H-3382.73V-1661ZM-3342.76 -1661H-3322.78V-1669H-3342.76V-1661ZM-3302.8 -1661H-3282.82V-1669H-3302.8V-1661ZM-3262.83 -1661H-3242.85V-1669H-3262.83V-1661ZM-3222.87 -1661H-3202.89V-1669H-3222.87V-1661ZM-3182.91 -1661H-3162.92V-1669H-3182.91V-1661ZM-3142.94 -1661H-3122.96V-1669H-3142.94V-1661ZM-3102.98 -1661H-3083V-1669H-3102.98V-1661ZM-3063.02 -1661H-3043.03V-1669H-3063.02V-1661ZM-3023.05 -1661H-3003.07V-1669H-3023.05V-1661ZM-2983.09 -1661H-2963.11V-1669H-2983.09V-1661ZM-2943.12 -1661H-2923.14V-1669H-2943.12V-1661ZM-2903.16 -1661H-2883.18V-1669H-2903.16V-1661ZM-2863.2 -1661H-2843.21V-1669H-2863.2V-1661ZM-2823.23 -1661H-2803.25V-1669H-2823.23V-1661ZM-2783.27 -1661H-2763.29V-1669H-2783.27V-1661ZM-2743.3 -1661H-2723.32V-1669H-2743.3V-1661ZM-2703.34 -1661H-2683.36V-1669H-2703.34V-1661ZM-2663.38 -1661H-2643.39V-1669H-2663.38V-1661ZM-2623.41 -1661H-2603.43V-1669H-2623.41V-1661ZM-2583.45 -1661H-2563.47V-1669H-2583.45V-1661ZM-2543.48 -1661H-2523.5V-1669H-2543.48V-1661ZM-2503.52 -1661H-2483.54V-1669H-2503.52V-1661ZM-2463.56 -1661H-2443.58V-1669H-2463.56V-1661ZM-2423.59 -1661H-2403.61V-1669H-2423.59V-1661ZM-2383.63 -1661H-2363.65V-1669H-2383.63V-1661ZM-2343.67 -1661H-2323.68V-1669H-2343.67V-1661ZM-2303.7 -1661H-2283.72V-1669H-2303.7V-1661ZM-2263.74 -1661H-2243.76V-1669H-2263.74V-1661ZM-2223.77 -1661H-2203.79V-1669H-2223.77V-1661ZM-2183.81 -1661H-2163.83V-1669H-2183.81V-1661ZM-2143.85 -1661H-2123.86V-1669H-2143.85V-1661ZM-2103.88 -1661H-2083.9V-1669H-2103.88V-1661ZM-2063.92 -1661H-2043.94V-1669H-2063.92V-1661ZM-2023.95 -1661H-2003.97V-1669H-2023.95V-1661ZM-1983.99 -1661H-1964.01V-1669H-1983.99V-1661ZM-1944.03 -1661H-1924.04V-1669H-1944.03V-1661ZM-1904.06 -1661H-1884.08V-1669H-1904.06V-1661ZM-1864.1 -1661H-1844.12V-1669H-1864.1V-1661ZM-1824.14 -1661H-1804.15V-1669H-1824.14V-1661ZM-1784.17 -1661H-1764.19V-1669H-1784.17V-1661ZM-1744.21 -1661H-1724.23V-1669H-1744.21V-1661ZM-1704.24 -1661H-1684.26V-1669H-1704.24V-1661ZM-1664.28 -1661H-1644.3V-1669H-1664.28V-1661ZM-1624.32 -1661H-1604.33V-1669H-1624.32V-1661ZM-1584.35 -1661H-1564.37V-1669H-1584.35V-1661ZM-1544.39 -1661H-1524.41V-1669H-1544.39V-1661ZM-1504.42 -1661H-1484.44V-1669H-1504.42V-1661ZM-1464.46 -1661H-1444.48V-1669H-1464.46V-1661ZM-1424.5 -1661H-1404.51V-1669H-1424.5V-1661ZM-1384.53 -1661H-1364.55V-1669H-1384.53V-1661ZM-1344.57 -1661H-1324.59V-1669H-1344.57V-1661ZM-1304.61 -1661H-1284.62V-1669H-1304.61V-1661ZM-1264.64 -1661H-1244.66V-1669H-1264.64V-1661ZM-1224.68 -1661H-1204.7V-1669H-1224.68V-1661ZM-1184.71 -1661H-1164.73V-1669H-1184.71V-1661ZM-1144.75 -1661H-1124.77V-1669H-1144.75V-1661ZM-1104.79 -1661H-1084.8V-1669H-1104.79V-1661ZM-1064.82 -1661H-1044.84V-1669H-1064.82V-1661ZM-1024.86 -1661H-1004.88V-1669H-1024.86V-1661ZM-984.894 -1661H-964.912V-1669H-984.894V-1661ZM-944.93 -1661H-924.948V-1669H-944.93V-1661ZM-904.966 -1661H-884.985V-1669H-904.966V-1661ZM-865.002 -1661H-845.02V-1669H-865.002V-1661ZM-825.039 -1661H-805.057V-1669H-825.039V-1661ZM-785.075 -1661H-765.093V-1669H-785.075V-1661ZM-745.111 -1661H-725.129V-1669H-745.111V-1661ZM-705.147 -1661H-685.165V-1669H-705.147V-1661ZM-665.183 -1661H-645.201V-1669H-665.183V-1661ZM-625.219 -1661H-605.237V-1669H-625.219V-1661ZM-585.255 -1661H-565.274V-1669H-585.255V-1661ZM-545.291 -1661H-525.309V-1669H-545.291V-1661ZM-505.328 -1661H-485.346V-1669H-505.328V-1661ZM-465.364 -1661H-445.382V-1669H-465.364V-1661ZM-425.4 -1661H-405.418V-1669H-425.4V-1661ZM-385.436 -1661H-365.454V-1669H-385.436V-1661ZM-345.472 -1661H-325.49V-1669H-345.472V-1661ZM-305.509 -1661H-285.526V-1669H-305.509V-1661ZM-265.544 -1661H-245.563V-1669H-265.544V-1661ZM-225.58 -1661H-205.599V-1669H-225.58V-1661ZM-185.617 -1661H-165.634V-1669H-185.617V-1661ZM-145.653 -1661H-125.671V-1669H-145.653V-1661ZM-105.689 -1661H-85.7068V-1669H-105.689V-1661ZM-65.7251 -1661H-45.7435V-1669H-65.7251V-1661ZM-25.761 -1661H-5.7793V-1669H-25.761V-1661ZM14.2024 -1661H34.1849V-1669H14.2024V-1661ZM54.1666 -1661H74.1482V-1669H54.1666V-1661ZM94.1307 -1661H114.112V-1669H94.1307V-1661ZM134.094 -1661H154.077V-1669H134.094V-1661ZM174.058 -1661H194.04V-1669H174.058V-1661ZM214.022 -1661H234.004V-1669H214.022V-1661ZM253.986 -1661H273.967V-1669H253.986V-1661ZM293.95 -1661H313.932V-1669H293.95V-1661ZM333.913 -1661H353.896V-1669H333.913V-1661ZM373.877 -1661H393.859V-1669H373.877V-1661ZM413.842 -1661H433.823V-1669H413.842V-1661ZM453.805 -1661H473.787V-1669H453.805V-1661ZM493.769 -1661H513.751V-1669H493.769V-1661ZM533.733 -1661H553.715V-1669H533.733V-1661ZM573.697 -1661H593.678V-1669H573.697V-1661ZM613.661 -1661H633.643V-1669H613.661V-1661ZM653.624 -1661H673.607V-1669H653.624V-1661ZM693.588 -1661H713.57V-1669H693.588V-1661ZM733.553 -1661H753.534V-1669H733.553V-1661ZM773.516 -1661H793.497V-1669H773.516V-1661ZM813.479 -1661H833.46V-1669H813.479V-1661ZM853.441 -1661H873.423V-1669H853.441V-1661ZM893.404 -1661H913.385V-1669H893.404V-1661ZM933.367 -1661H953.349V-1669H933.367V-1661ZM973.33 -1661H993.311V-1669H973.33V-1661ZM1013.29 -1661H1033.27V-1669H1013.29V-1661ZM1053.26 -1661H1073.24V-1669H1053.26V-1661ZM1093.22 -1661H1113.2V-1669H1093.22V-1661ZM1133.18 -1661H1153.16V-1669H1133.18V-1661ZM1173.14 -1661H1193.13V-1669H1173.14V-1661ZM1213.11 -1661H1233.09V-1669H1213.11V-1661ZM1253.07 -1661H1273.05V-1669H1253.07V-1661ZM1293.03 -1661H1313.01V-1669H1293.03V-1661ZM1333 -1661H1352.98V-1669H1333V-1661ZM1372.96 -1661H1392.94V-1669H1372.96V-1661ZM1412.92 -1661H1432.9V-1669H1412.92V-1661ZM1452.88 -1661H1472.87V-1669H1452.88V-1661ZM1492.85 -1661H1512.83V-1669H1492.85V-1661ZM1532.81 -1661H1552.79V-1669H1532.81V-1661ZM1572.77 -1661H1592.75V-1669H1572.77V-1661ZM1612.74 -1661H1632.72V-1669H1612.74V-1661ZM1652.7 -1661H1672.68V-1669H1652.7V-1661ZM1692.66 -1661H1712.64V-1669H1692.66V-1661ZM1732.63 -1661H1752.61V-1669H1732.63V-1661ZM1772.59 -1661H1792.57V-1669H1772.59V-1661ZM1812.55 -1661H1832.53V-1669H1812.55V-1661ZM1852.51 -1661H1872.5V-1669H1852.51V-1661ZM1892.48 -1661H1912.46V-1669H1892.48V-1661ZM1932.44 -1661H1952.42V-1669H1932.44V-1661ZM1972.4 -1661H1992.38V-1669H1972.4V-1661ZM2012.36 -1661H2032.35V-1669H2012.36V-1661ZM2052.33 -1661H2072.31V-1669H2052.33V-1661ZM2092.29 -1661H2112.27V-1669H2092.29V-1661ZM2132.25 -1661H2152.24V-1669H2132.25V-1661ZM2172.22 -1661H2192.2V-1669H2172.22V-1661ZM2212.18 -1661H2232.16V-1669H2212.18V-1661ZM2252.14 -1661H2272.12V-1669H2252.14V-1661ZM2292.11 -1661H2312.09V-1669H2292.11V-1661ZM2332.07 -1661H2352.05V-1669H2332.07V-1661ZM2372.03 -1661H2392.01V-1669H2372.03V-1661ZM2411.99 -1661H2431.98V-1669H2411.99V-1661ZM2451.96 -1661H2471.94V-1669H2451.96V-1661ZM2491.92 -1661H2511.9V-1669H2491.92V-1661ZM2531.88 -1661H2551.86V-1669H2531.88V-1661ZM2571.85 -1661H2591.83V-1669H2571.85V-1661ZM2611.81 -1661H2631.79V-1669H2611.81V-1661ZM2651.77 -1661H2671.75V-1669H2651.77V-1661ZM2691.73 -1661H2711.72V-1669H2691.73V-1661ZM2731.7 -1661H2751.68V-1669H2731.7V-1661ZM2771.66 -1661H2791.64V-1669H2771.66V-1661ZM2811.62 -1661H2831.6V-1669H2811.62V-1661ZM2851.59 -1661H2871.57V-1669H2851.59V-1661ZM2891.55 -1661H2911.53V-1669H2891.55V-1661ZM2931.51 -1661H2951.49V-1669H2931.51V-1661ZM2971.47 -1661H2991.46V-1669H2971.47V-1661ZM3011.44 -1661H3031.42V-1669H3011.44V-1661ZM3051.4 -1661H3071.38V-1669H3051.4V-1661ZM3091.36 -1661H3111.34V-1669H3091.36V-1661ZM3131.33 -1661H3151.31V-1669H3131.33V-1661ZM3171.29 -1661H3191.27V-1669H3171.29V-1661ZM3211.25 -1661H3231.23V-1669H3211.25V-1661ZM3251.21 -1661H3271.2V-1669H3251.21V-1661ZM3291.18 -1661H3311.16V-1669H3291.18V-1661ZM3331.14 -1661H3351.12V-1669H3331.14V-1661ZM3371.1 -1661H3391.09V-1669H3371.1V-1661ZM3411.07 -1661H3431.05V-1669H3411.07V-1661ZM3451.03 -1661H3471.01V-1669H3451.03V-1661ZM3490.99 -1661H3510.97V-1669H3490.99V-1661ZM3530.96 -1661H3550.94V-1669H3530.96V-1661ZM3570.92 -1661H3590.9V-1669H3570.92V-1661ZM3610.88 -1661H3630.86V-1669H3610.88V-1661ZM3650.84 -1661H3670.83V-1669H3650.84V-1661ZM3690.81 -1661H3710.79V-1669H3690.81V-1661ZM3730.77 -1661H3750.75V-1669H3730.77V-1661ZM3770.73 -1661H3790.71V-1669H3770.73V-1661ZM3810.7 -1661H3830.68V-1669H3810.7V-1661ZM3850.66 -1661H3870.64V-1669H3850.66V-1661ZM3890.62 -1661H3910.6V-1669H3890.62V-1661ZM3930.58 -1661H3950.57V-1669H3930.58V-1661ZM3970.55 -1661H3990.53V-1669H3970.55V-1661ZM4010.51 -1661H4030.49V-1669H4010.51V-1661ZM4050.47 -1661H4070.45V-1669H4050.47V-1661ZM4090.44 -1661H4110.42V-1669H4090.44V-1661ZM4130.4 -1661H4150.38V-1669H4130.4V-1661ZM4170.36 -1661H4190.34V-1669H4170.36V-1661ZM4210.32 -1661H4230.31V-1669H4210.32V-1661ZM4250.29 -1661H4270.27V-1669H4250.29V-1661ZM4290.25 -1661H4310.23V-1669H4290.25V-1661ZM4330.21 -1661H4350.19V-1669H4330.21V-1661ZM4370.18 -1661H4390.16V-1669H4370.18V-1661ZM4410.14 -1661H4430.12V-1669H4410.14V-1661ZM4450.1 -1661H4470.08V-1669H4450.1V-1661ZM4490.06 -1661H4510.05V-1669H4490.06V-1661ZM4530.03 -1661H4550.01V-1669H4530.03V-1661ZM4569.99 -1661H4589.97V-1669H4569.99V-1661ZM4609.95 -1661H4629.93V-1669H4609.95V-1661ZM4649.92 -1661H4669.9V-1669H4649.92V-1661ZM4689.88 -1661H4709.86V-1669H4689.88V-1661ZM4729.84 -1661H4749.82V-1669H4729.84V-1661ZM4769.8 -1661H4789.79V-1669H4769.8V-1661ZM4809.77 -1661H4829.75V-1669H4809.77V-1661ZM4849.73 -1661H4869.71V-1669H4849.73V-1661ZM4889.69 -1661H4909.67V-1669H4889.69V-1661ZM4929.66 -1661H4949.64V-1669H4929.66V-1661ZM4969.62 -1661H4989.6V-1669H4969.62V-1661ZM5009.58 -1661H5029.56V-1669H5009.58V-1661ZM5049.54 -1661H5069.53V-1669H5049.54V-1661ZM5089.51 -1661H5109.49V-1669H5089.51V-1661ZM5129.47 -1661H5149.45V-1669H5129.47V-1661ZM5169.43 -1661H5189.42V-1669H5169.43V-1661ZM5209.4 -1661H5229.38V-1669H5209.4V-1661ZM5249.36 -1661H5269.34V-1669H5249.36V-1661ZM5289.32 -1661H5309.3V-1669H5289.32V-1661ZM5329.29 -1661H5349.27V-1669H5329.29V-1661ZM5369.25 -1661H5389.23V-1669H5369.25V-1661ZM5409.21 -1661H5429.19V-1669H5409.21V-1661ZM5449.17 -1661H5469.16V-1669H5449.17V-1661ZM5489.14 -1661H5509.12V-1669H5489.14V-1661ZM5529.1 -1661H5549.08V-1669H5529.1V-1661ZM5569.06 -1661H5589.04V-1669H5569.06V-1661ZM5609.03 -1661H5629.01V-1669H5609.03V-1661ZM5648.99 -1661H5659V-1669H5648.99V-1661ZM5659 -1661C5657.9 -1661 5657 -1661.9 5657 -1663H5665C5665 -1666.31 5662.31 -1669 5659 -1669V-1661ZM5657 -1663V-1653H5665V-1663H5657ZM5657 -1633V-1613H5665V-1633H5657ZM5657 -1593V-1573H5665V-1593H5657ZM5657 -1553V-1533H5665V-1553H5657ZM5657 -1513V-1493H5665V-1513H5657ZM5657 -1473V-1453H5665V-1473H5657ZM5657 -1433V-1413H5665V-1433H5657ZM5657 -1393V-1373H5665V-1393H5657ZM5657 -1353V-1333H5665V-1353H5657ZM5657 -1313V-1293H5665V-1313H5657ZM5657 -1273V-1253H5665V-1273H5657ZM5657 -1233V-1213H5665V-1233H5657ZM5657 -1193V-1173H5665V-1193H5657ZM5657 -1153V-1133H5665V-1153H5657ZM5657 -1113V-1093H5665V-1113H5657ZM5657 -1073V-1053H5665V-1073H5657ZM5657 -1033V-1013H5665V-1033H5657ZM5657 -993V-973H5665V-993H5657ZM5657 -953V-933H5665V-953H5657ZM5657 -913V-893H5665V-913H5657ZM5657 -873V-853H5665V-873H5657ZM5657 -833V-813H5665V-833H5657ZM5657 -793V-773H5665V-793H5657ZM5657 -753V-733H5665V-753H5657ZM5657 -713V-693H5665V-713H5657ZM5657 -673V-653H5665V-673H5657ZM5657 -633V-613H5665V-633H5657ZM5657 -593V-573H5665V-593H5657ZM5657 -553V-533H5665V-553H5657ZM5657 -513V-493H5665V-513H5657ZM5657 -473V-453H5665V-473H5657ZM5657 -433V-413H5665V-433H5657ZM5657 -393V-373H5665V-393H5657ZM5657 -353V-333H5665V-353H5657ZM5657 -313V-293H5665V-313H5657ZM5657 -273V-253H5665V-273H5657ZM5657 -233V-213H5665V-233H5657ZM5657 -193V-173H5665V-193H5657ZM5657 -153V-133H5665V-153H5657ZM5657 -113V-93H5665V-113H5657ZM5657 -73V-53H5665V-73H5657ZM5657 -33V-13H5665V-33H5657ZM5657 6.99993V26.9999H5665V6.99993H5657ZM5657 46.9999V67H5665V46.9999H5657ZM5657 87V107H5665V87H5657ZM5657 127V147H5665V127H5657ZM5657 167V187H5665V167H5657ZM5657 207V227H5665V207H5657ZM5657 247V267H5665V247H5657ZM5657 287V307H5665V287H5657ZM5657 327V347H5665V327H5657ZM5657 367V387H5665V367H5657ZM5657 407V427H5665V407H5657ZM5657 447V467H5665V447H5657ZM5657 487V507H5665V487H5657ZM5657 527V547H5665V527H5657ZM5657 567V587H5665V567H5657ZM5657 607V627H5665V607H5657ZM5657 647V667H5665V647H5657ZM5657 687V707H5665V687H5657ZM5657 727V747H5665V727H5657ZM5657 767V787H5665V767H5657ZM5657 807V827H5665V807H5657ZM5657 847V867H5665V847H5657ZM5657 887V907H5665V887H5657ZM5657 927V947H5665V927H5657ZM5657 967V987H5665V967H5657ZM5657 1007V1027H5665V1007H5657ZM5657 1047V1067H5665V1047H5657ZM5657 1087V1107H5665V1087H5657ZM5657 1127V1147H5665V1127H5657ZM5657 1167V1187H5665V1167H5657ZM5657 1207V1227H5665V1207H5657ZM5657 1247V1267H5665V1247H5657ZM5657 1287V1307H5665V1287H5657ZM5657 1327V1347H5665V1327H5657ZM5657 1367V1387H5665V1367H5657ZM5657 1407V1427H5665V1407H5657ZM5657 1447V1467H5665V1447H5657ZM5657 1487V1507H5665V1487H5657ZM5657 1527V1547H5665V1527H5657ZM5657 1567V1587H5665V1567H5657ZM5657 1607V1627H5665V1607H5657ZM5657 1647V1667H5665V1647H5657ZM5657 1687V1707H5665V1687H5657ZM5657 1727V1747H5665V1727H5657ZM5657 1767V1787H5665V1767H5657ZM5657 1807V1827H5665V1807H5657ZM5657 1847V1867H5665V1847H5657ZM5657 1887V1907H5665V1887H5657ZM5657 1927V1947H5665V1927H5657ZM5657 1967V1987H5665V1967H5657ZM5657 2007V2027H5665V2007H5657ZM5657 2047V2067H5665V2047H5657ZM5657 2087V2107H5665V2087H5657ZM5657 2127V2147H5665V2127H5657ZM5657 2167V2187H5665V2167H5657ZM5657 2207V2227H5665V2207H5657ZM5657 2247V2267H5665V2247H5657ZM5657 2287V2307H5665V2287H5657ZM5657 2327V2347H5665V2327H5657ZM5657 2367V2387H5665V2367H5657ZM5657 2407V2427H5665V2407H5657ZM5657 2447V2467H5665V2447H5657ZM5657 2487V2507H5665V2487H5657ZM5657 2527V2547H5665V2527H5657ZM5657 2567V2587H5665V2567H5657ZM5657 2607V2627H5665V2607H5657ZM5657 2647V2667H5665V2647H5657ZM5657 2687V2707H5665V2687H5657ZM5657 2727V2747H5665V2727H5657ZM5657 2767V2787H5665V2767H5657ZM5657 2807V2827H5665V2807H5657ZM5657 2847V2867H5665V2847H5657ZM5657 2887V2907H5665V2887H5657ZM5657 2927V2947H5665V2927H5657ZM5657 2967V2987H5665V2967H5657ZM5657 3007V3027H5665V3007H5657ZM5657 3047V3067H5665V3047H5657ZM5657 3087V3107H5665V3087H5657ZM5657 3127V3147H5665V3127H5657ZM5657 3167V3187H5665V3167H5657ZM5657 3207V3227H5665V3207H5657ZM5657 3247V3267H5665V3247H5657ZM5657 3287V3307H5665V3287H5657ZM5657 3327V3347H5665V3327H5657ZM5657 3367V3387H5665V3367H5657ZM5657 3407V3427H5665V3407H5657ZM5657 3447V3467H5665V3447H5657ZM5657 3487V3507H5665V3487H5657ZM5657 3527V3547H5665V3527H5657ZM5657 3567V3587H5665V3567H5657ZM5657 3607V3627H5665V3607H5657ZM5657 3647V3667H5665V3647H5657ZM5657 3687V3707H5665V3687H5657ZM5657 3727V3747H5665V3727H5657ZM5657 3767V3787H5665V3767H5657ZM5657 3807V3827H5665V3807H5657ZM5657 3847V3867H5665V3847H5657ZM5657 3887V3907H5665V3887H5657ZM5657 3927V3947H5665V3927H5657ZM5657 3967V3987H5665V3967H5657ZM5657 4007V4027H5665V4007H5657ZM5657 4047V4067H5665V4047H5657ZM5657 4087V4107H5665V4087H5657ZM5657 4127V4147H5665V4127H5657ZM5657 4167V4187H5665V4167H5657ZM5657 4207V4227H5665V4207H5657ZM5657 4247V4267H5665V4247H5657ZM5657 4287V4307H5665V4287H5657ZM5657 4327V4347H5665V4327H5657ZM5657 4367V4387H5665V4367H5657ZM5657 4407V4427H5665V4407H5657ZM5657 4447V4467H5665V4447H5657ZM5657 4487V4507H5665V4487H5657ZM5657 4527V4547H5665V4527H5657ZM5657 4567V4587H5665V4567H5657ZM5657 4607V4627H5665V4607H5657ZM5657 4647V4667H5665V4647H5657ZM5657 4687V4707H5665V4687H5657ZM5657 4727V4747H5665V4727H5657ZM5657 4767V4787H5665V4767H5657ZM5657 4807V4827H5665V4807H5657ZM5657 4847V4867H5665V4847H5657ZM5657 4887V4907H5665V4887H5657ZM5657 4927V4947H5665V4927H5657ZM5657 4967V4987H5665V4967H5657ZM5657 5007V5027H5665V5007H5657ZM5657 5047V5067H5665V5047H5657ZM5657 5087V5107H5665V5087H5657ZM5657 5127V5147H5665V5127H5657ZM5657 5167V5187H5665V5167H5657ZM5657 5207V5227H5665V5207H5657ZM5657 5247V5267H5665V5247H5657ZM5657 5287V5307H5665V5287H5657ZM5657 5327V5347H5665V5327H5657ZM5657 5367V5387H5665V5367H5657ZM5657 5407V5427H5665V5407H5657ZM5657 5447V5467H5665V5447H5657ZM5657 5487V5497H5665V5487H5657ZM5657 5497C5657 5495.9 5657.9 5495 5659 5495V5503C5662.31 5503 5665 5500.31 5665 5497H5657ZM5659 5495H5649.01V5503H5659V5495ZM5629.03 5495H5609.05V5503H5629.03V5495ZM5589.06 5495H5569.08V5503H5589.06V5495ZM5549.1 5495H5529.12V5503H5549.1V5495ZM5509.14 5495H5489.16V5503H5509.14V5495ZM5469.17 5495H5449.19V5503H5469.17V5495ZM5429.21 5495H5409.23V5503H5429.21V5495ZM5389.25 5495H5369.27V5503H5389.25V5495ZM5349.28 5495H5329.3V5503H5349.28V5495ZM5309.32 5495H5289.34V5503H5309.32V5495ZM5269.36 5495H5249.37V5503H5269.36V5495ZM5229.39 5495H5209.41V5503H5229.39V5495ZM5189.43 5495H5169.45V5503H5189.43V5495ZM5149.47 5495H5129.48V5503H5149.47V5495ZM5109.5 5495H5089.52V5503H5109.5V5495ZM5069.54 5495H5049.56V5503H5069.54V5495ZM5029.58 5495H5009.59V5503H5029.58V5495ZM4989.61 5495H4969.63V5503H4989.61V5495ZM4949.65 5495H4929.67V5503H4949.65V5495ZM4909.69 5495H4889.7V5503H4909.69V5495ZM4869.72 5495H4849.74V5503H4869.72V5495ZM4829.76 5495H4809.78V5503H4829.76V5495ZM4789.8 5495H4769.81V5503H4789.8V5495ZM4749.83 5495H4729.85V5503H4749.83V5495ZM4709.87 5495H4689.89V5503H4709.87V5495ZM4669.91 5495H4649.92V5503H4669.91V5495ZM4629.94 5495H4609.96V5503H4629.94V5495ZM4589.98 5495H4570V5503H4589.98V5495ZM4550.02 5495H4530.03V5503H4550.02V5495ZM4510.05 5495H4490.07V5503H4510.05V5495ZM4470.09 5495H4450.11V5503H4470.09V5495ZM4430.13 5495H4410.14V5503H4430.13V5495ZM4390.16 5495H4370.18V5503H4390.16V5495ZM4350.2 5495H4330.22V5503H4350.2V5495ZM4310.24 5495H4290.25V5503H4310.24V5495ZM4270.27 5495H4250.29V5503H4270.27V5495ZM4230.31 5495H4210.33V5503H4230.31V5495ZM4190.35 5495H4170.36V5503H4190.35V5495ZM4150.38 5495H4130.4V5503H4150.38V5495ZM4110.42 5495H4090.44V5503H4110.42V5495ZM4070.46 5495H4050.47V5503H4070.46V5495ZM4030.49 5495H4010.51V5503H4030.49V5495ZM3990.53 5495H3970.55V5503H3990.53V5495ZM3950.56 5495H3930.58V5503H3950.56V5495ZM3910.6 5495H3890.62V5503H3910.6V5495ZM3870.64 5495H3850.66V5503H3870.64V5495ZM3830.67 5495H3810.69V5503H3830.67V5495ZM3790.71 5495H3770.73V5503H3790.71V5495ZM3750.75 5495H3730.77V5503H3750.75V5495ZM3710.78 5495H3690.8V5503H3710.78V5495ZM3670.82 5495H3650.84V5503H3670.82V5495ZM3630.86 5495H3610.88V5503H3630.86V5495ZM3590.89 5495H3570.91V5503H3590.89V5495ZM3550.93 5495H3530.95V5503H3550.93V5495ZM3510.97 5495H3490.99V5503H3510.97V5495ZM3471 5495H3451.02V5503H3471V5495ZM3431.04 5495H3411.06V5503H3431.04V5495ZM3391.08 5495H3371.1V5503H3391.08V5495ZM3351.11 5495H3331.13V5503H3351.11V5495ZM3311.15 5495H3291.17V5503H3311.15V5495ZM3271.19 5495H3251.21V5503H3271.19V5495ZM3231.22 5495H3211.24V5503H3231.22V5495ZM3191.26 5495H3171.28V5503H3191.26V5495ZM3151.3 5495H3131.32V5503H3151.3V5495ZM3111.33 5495H3091.35V5503H3111.33V5495ZM3071.37 5495H3051.39V5503H3071.37V5495ZM3031.41 5495H3011.43V5503H3031.41V5495ZM2991.44 5495H2971.46V5503H2991.44V5495ZM2951.48 5495H2931.5V5503H2951.48V5495ZM2911.52 5495H2891.54V5503H2911.52V5495ZM2871.55 5495H2851.57V5503H2871.55V5495ZM2831.59 5495H2811.61V5503H2831.59V5495ZM2791.63 5495H2771.65V5503H2791.63V5495ZM2751.66 5495H2731.68V5503H2751.66V5495ZM2711.7 5495H2691.72V5503H2711.7V5495ZM2671.74 5495H2651.76V5503H2671.74V5495ZM2631.77 5495H2611.79V5503H2631.77V5495ZM2591.81 5495H2571.83V5503H2591.81V5495ZM2551.85 5495H2531.86V5503H2551.85V5495ZM2511.88 5495H2491.9V5503H2511.88V5495ZM2471.92 5495H2451.94V5503H2471.92V5495ZM2431.96 5495H2411.97V5503H2431.96V5495ZM2391.99 5495H2372.01V5503H2391.99V5495ZM2352.03 5495H2332.05V5503H2352.03V5495ZM2312.07 5495H2292.08V5503H2312.07V5495ZM2272.1 5495H2252.12V5503H2272.1V5495ZM2232.14 5495H2212.16V5503H2232.14V5495ZM2192.18 5495H2172.19V5503H2192.18V5495ZM2152.21 5495H2132.23V5503H2152.21V5495ZM2112.25 5495H2092.27V5503H2112.25V5495ZM2072.29 5495H2052.3V5503H2072.29V5495ZM2032.32 5495H2012.34V5503H2032.32V5495ZM1992.36 5495H1972.38V5503H1992.36V5495ZM1952.4 5495H1932.41V5503H1952.4V5495ZM1912.43 5495H1892.45V5503H1912.43V5495ZM1872.47 5495H1852.49V5503H1872.47V5495ZM1832.51 5495H1812.52V5503H1832.51V5495ZM1792.54 5495H1772.56V5503H1792.54V5495ZM1752.58 5495H1732.6V5503H1752.58V5495ZM1712.62 5495H1692.63V5503H1712.62V5495ZM1672.65 5495H1652.67V5503H1672.65V5495ZM1632.69 5495H1612.71V5503H1632.69V5495ZM1592.73 5495H1572.74V5503H1592.73V5495ZM1552.76 5495H1532.78V5503H1552.76V5495ZM1512.8 5495H1492.82V5503H1512.8V5495ZM1472.83 5495H1452.85V5503H1472.83V5495ZM1432.87 5495H1412.89V5503H1432.87V5495ZM1392.91 5495H1372.92V5503H1392.91V5495ZM1352.94 5495H1332.96V5503H1352.94V5495ZM1312.98 5495H1293V5503H1312.98V5495ZM1273.02 5495H1253.03V5503H1273.02V5495ZM1233.05 5495H1213.07V5503H1233.05V5495ZM1193.09 5495H1173.11V5503H1193.09V5495ZM1153.12 5495H1133.14V5503H1153.12V5495ZM1113.16 5495H1093.18V5503H1113.16V5495ZM1073.2 5495H1053.21V5503H1073.2V5495ZM1033.23 5495H1013.25V5503H1033.23V5495ZM993.268 5495H973.286V5503H993.268V5495ZM953.304 5495H933.322V5503H953.304V5495ZM913.34 5495H893.358V5503H913.34V5495ZM873.376 5495H853.395V5503H873.376V5495ZM833.413 5495H813.431V5503H833.413V5495ZM793.449 5495H773.467V5503H793.449V5495ZM753.485 5495H733.503V5503H753.485V5495ZM713.521 5495H693.539V5503H713.521V5495ZM673.557 5495H653.575V5503H673.557V5495ZM633.593 5495H613.611V5503H633.593V5495ZM593.63 5495H573.647V5503H593.63V5495ZM553.665 5495H533.684V5503H553.665V5495ZM513.702 5495H493.72V5503H513.702V5495ZM473.738 5495H453.756V5503H473.738V5495ZM433.774 5495H413.792V5503H433.774V5495ZM393.81 5495H373.828V5503H393.81V5495ZM353.846 5495H333.864V5503H353.846V5495ZM313.882 5495H293.9V5503H313.882V5495ZM273.919 5495H253.937V5503H273.919V5495ZM233.954 5495H213.973V5503H233.954V5495ZM193.991 5495H174.009V5503H193.991V5495ZM154.027 5495H134.045V5503H154.027V5495ZM114.063 5495H94.081V5503H114.063V5495ZM74.099 5495H54.1173V5503H74.099V5495ZM34.1352 5495H14.1531V5503H34.1352V5495ZM-5.82857 5495H-25.8106V5503H-5.82857V5495ZM-45.7923 5495H-65.7744V5503H-45.7923V5495ZM-85.7565 5495H-105.738V5503H-85.7565V5495ZM-125.72 5495H-145.702V5503H-125.72V5495ZM-165.684 5495H-185.666V5503H-165.684V5495ZM-205.648 5495H-225.63V5503H-205.648V5495ZM-245.612 5495H-265.594V5503H-245.612V5495ZM-285.576 5495H-305.558V5503H-285.576V5495ZM-325.539 5495H-345.522V5503H-325.539V5495ZM-365.503 5495H-385.485V5503H-365.503V5495ZM-405.467 5495H-425.449V5503H-405.467V5495ZM-445.431 5495H-465.413V5503H-445.431V5495ZM-485.395 5495H-505.377V5503H-485.395V5495ZM-525.359 5495H-545.341V5503H-525.359V5495ZM-565.323 5495H-585.305V5503H-565.323V5495ZM-605.287 5495H-625.269V5503H-605.287V5495ZM-645.25 5495H-665.232V5503H-645.25V5495ZM-685.215 5495H-705.196V5503H-685.215V5495ZM-725.178 5495H-745.16V5503H-725.178V5495ZM-765.142 5495H-785.124V5503H-765.142V5495ZM-805.106 5495H-825.088V5503H-805.106V5495ZM-845.07 5495H-865.052V5503H-845.07V5495ZM-885.034 5495H-905.015V5503H-885.034V5495ZM-924.998 5495H-944.98V5503H-924.998V5495ZM-964.961 5495H-984.943V5503H-964.961V5495ZM-1004.93 5495H-1024.91V5503H-1004.93V5495ZM-1044.89 5495H-1064.87V5503H-1044.89V5495ZM-1084.85 5495H-1104.83V5503H-1084.85V5495ZM-1124.82 5495H-1144.8V5503H-1124.82V5495ZM-1164.78 5495H-1184.76V5503H-1164.78V5495ZM-1204.74 5495H-1224.73V5503H-1204.74V5495ZM-1244.71 5495H-1264.69V5503H-1244.71V5495ZM-1284.67 5495H-1304.65V5503H-1284.67V5495ZM-1324.64 5495H-1344.62V5503H-1324.64V5495ZM-1364.6 5495H-1384.58V5503H-1364.6V5495ZM-1404.56 5495H-1424.55V5503H-1404.56V5495ZM-1444.53 5495H-1464.51V5503H-1444.53V5495ZM-1484.49 5495H-1504.47V5503H-1484.49V5495ZM-1524.46 5495H-1544.44V5503H-1524.46V5495ZM-1564.42 5495H-1584.4V5503H-1564.42V5495ZM-1604.38 5495H-1624.37V5503H-1604.38V5495ZM-1644.35 5495H-1664.33V5503H-1644.35V5495ZM-1684.31 5495H-1704.29V5503H-1684.31V5495ZM-1724.27 5495H-1744.26V5503H-1724.27V5495ZM-1764.24 5495H-1784.22V5503H-1764.24V5495ZM-1804.2 5495H-1824.18V5503H-1804.2V5495ZM-1844.17 5495H-1864.15V5503H-1844.17V5495ZM-1884.13 5495H-1904.11V5503H-1884.13V5495ZM-1924.09 5495H-1944.08V5503H-1924.09V5495ZM-1964.06 5495H-1984.04V5503H-1964.06V5495ZM-2004.02 5495H-2024V5503H-2004.02V5495ZM-2043.99 5495H-2063.97V5503H-2043.99V5495ZM-2083.95 5495H-2103.93V5503H-2083.95V5495ZM-2123.91 5495H-2143.9V5503H-2123.91V5495ZM-2163.88 5495H-2183.86V5503H-2163.88V5495ZM-2203.84 5495H-2223.82V5503H-2203.84V5495ZM-2243.81 5495H-2263.79V5503H-2243.81V5495ZM-2283.77 5495H-2303.75V5503H-2283.77V5495ZM-2323.73 5495H-2343.72V5503H-2323.73V5495ZM-2363.7 5495H-2383.68V5503H-2363.7V5495ZM-2403.66 5495H-2423.64V5503H-2403.66V5495ZM-2443.62 5495H-2463.61V5503H-2443.62V5495ZM-2483.59 5495H-2503.57V5503H-2483.59V5495ZM-2523.55 5495H-2543.53V5503H-2523.55V5495ZM-2563.52 5495H-2583.5V5503H-2563.52V5495ZM-2603.48 5495H-2623.46V5503H-2603.48V5495ZM-2643.44 5495H-2663.42V5503H-2643.44V5495ZM-2683.4 5495H-2703.39V5503H-2683.4V5495ZM-2723.37 5495H-2743.35V5503H-2723.37V5495ZM-2763.33 5495H-2783.31V5503H-2763.33V5495ZM-2803.29 5495H-2823.27V5503H-2803.29V5495ZM-2843.26 5495H-2863.24V5503H-2843.26V5495ZM-2883.22 5495H-2903.2V5503H-2883.22V5495ZM-2923.18 5495H-2943.16V5503H-2923.18V5495ZM-2963.14 5495H-2983.13V5503H-2963.14V5495ZM-3003.11 5495H-3023.09V5503H-3003.11V5495ZM-3043.07 5495H-3063.05V5503H-3043.07V5495ZM-3083.03 5495H-3103.01V5503H-3083.03V5495ZM-3123 5495H-3142.98V5503H-3123V5495ZM-3162.96 5495H-3182.94V5503H-3162.96V5495ZM-3202.92 5495H-3222.9V5503H-3202.92V5495ZM-3242.88 5495H-3262.87V5503H-3242.88V5495ZM-3282.85 5495H-3302.83V5503H-3282.85V5495ZM-3322.81 5495H-3342.79V5503H-3322.81V5495ZM-3362.77 5495H-3382.75V5503H-3362.77V5495ZM-3402.74 5495H-3422.72V5503H-3402.74V5495ZM-3442.7 5495H-3462.68V5503H-3442.7V5495ZM-3482.66 5495H-3502.64V5503H-3482.66V5495ZM-3522.63 5495H-3542.61V5503H-3522.63V5495ZM-3562.59 5495H-3582.57V5503H-3562.59V5495ZM-3602.55 5495H-3622.53V5503H-3602.55V5495ZM-3642.51 5495H-3662.5V5503H-3642.51V5495ZM-3682.48 5495H-3702.46V5503H-3682.48V5495ZM-3722.44 5495H-3742.42V5503H-3722.44V5495ZM-3762.4 5495H-3782.38V5503H-3762.4V5495ZM-3802.36 5495H-3822.35V5503H-3802.36V5495ZM-3842.33 5495H-3862.31V5503H-3842.33V5495ZM-3882.29 5495H-3902.27V5503H-3882.29V5495ZM-3922.25 5495H-3942.24V5503H-3922.25V5495ZM-3962.22 5495H-3982.2V5503H-3962.22V5495ZM-4002.18 5495H-4022.16V5503H-4002.18V5495ZM-4042.14 5495H-4062.12V5503H-4042.14V5495ZM-4082.11 5495H-4102.09V5503H-4082.11V5495ZM-4122.07 5495H-4142.05V5503H-4122.07V5495ZM-4162.03 5495H-4182.01V5503H-4162.03V5495ZM-4201.99 5495H-4221.98V5503H-4201.99V5495ZM-4241.96 5495H-4261.94V5503H-4241.96V5495ZM-4281.92 5495H-4301.9V5503H-4281.92V5495ZM-4321.88 5495H-4341.86V5503H-4321.88V5495ZM-4361.85 5495H-4381.83V5503H-4361.85V5495ZM-4401.81 5495H-4421.79V5503H-4401.81V5495ZM-4441.77 5495H-4461.75V5503H-4441.77V5495ZM-4481.73 5495H-4501.72V5503H-4481.73V5495ZM-4521.7 5495H-4541.68V5503H-4521.7V5495ZM-4561.66 5495H-4581.64V5503H-4561.66V5495ZM-4601.62 5495H-4621.6V5503H-4601.62V5495ZM-4641.59 5495H-4661.57V5503H-4641.59V5495ZM-4681.55 5495H-4701.53V5503H-4681.55V5495ZM-4721.51 5495H-4741.49V5503H-4721.51V5495ZM-4761.47 5495H-4781.46V5503H-4761.47V5495ZM-4801.44 5495H-4821.42V5503H-4801.44V5495ZM-4841.4 5495H-4861.38V5503H-4841.4V5495ZM-4881.36 5495H-4901.34V5503H-4881.36V5495ZM-4921.33 5495H-4941.31V5503H-4921.33V5495ZM-4961.29 5495H-4981.27V5503H-4961.29V5495ZM-5001.25 5495H-5021.23V5503H-5001.25V5495ZM-5041.21 5495H-5061.2V5503H-5041.21V5495ZM-5081.18 5495H-5101.16V5503H-5081.18V5495ZM-5121.14 5495H-5141.12V5503H-5121.14V5495ZM-5161.1 5495H-5181.09V5503H-5161.1V5495ZM-5201.07 5495H-5221.05V5503H-5201.07V5495ZM-5241.03 5495H-5261.01V5503H-5241.03V5495ZM-5280.99 5495H-5300.97V5503H-5280.99V5495ZM-5320.96 5495H-5340.94V5503H-5320.96V5495ZM-5360.92 5495H-5380.9V5503H-5360.92V5495ZM-5400.88 5495H-5420.86V5503H-5400.88V5495ZM-5440.84 5495H-5460.83V5503H-5440.84V5495ZM-5480.81 5495H-5500.79V5503H-5480.81V5495ZM-5520.77 5495H-5540.75V5503H-5520.77V5495ZM-5560.73 5495H-5580.71V5503H-5560.73V5495ZM-5600.7 5495H-5620.68V5503H-5600.7V5495ZM-5640.66 5495H-5660.64V5503H-5640.66V5495ZM-5680.62 5495H-5700.6V5503H-5680.62V5495ZM-5720.58 5495H-5740.57V5503H-5720.58V5495ZM-5760.55 5495H-5780.53V5503H-5760.55V5495ZM-5800.51 5495H-5820.49V5503H-5800.51V5495ZM-5840.47 5495H-5860.45V5503H-5840.47V5495ZM-5880.44 5495H-5900.42V5503H-5880.44V5495ZM-5920.4 5495H-5940.38V5503H-5920.4V5495ZM-5960.36 5495H-5980.34V5503H-5960.36V5495ZM-6000.32 5495H-6020.31V5503H-6000.32V5495ZM-6040.29 5495H-6060.27V5503H-6040.29V5495ZM-6080.25 5495H-6100.23V5503H-6080.25V5495ZM-6120.21 5495H-6140.19V5503H-6120.21V5495ZM-6160.18 5495H-6180.16V5503H-6160.18V5495ZM-6200.14 5495H-6220.12V5503H-6200.14V5495ZM-6240.1 5495H-6260.08V5503H-6240.1V5495ZM-6280.06 5495H-6300.05V5503H-6280.06V5495ZM-6320.03 5495H-6340.01V5503H-6320.03V5495ZM-6359.99 5495H-6379.97V5503H-6359.99V5495ZM-6399.95 5495H-6419.93V5503H-6399.95V5495ZM-6439.92 5495H-6459.9V5503H-6439.92V5495ZM-6479.88 5495H-6499.86V5503H-6479.88V5495ZM-6519.84 5495H-6539.82V5503H-6519.84V5495ZM-6559.8 5495H-6579.79V5503H-6559.8V5495ZM-6599.77 5495H-6619.75V5503H-6599.77V5495ZM-6639.73 5495H-6659.71V5503H-6639.73V5495ZM-6679.69 5495H-6699.67V5503H-6679.69V5495ZM-6719.66 5495H-6739.64V5503H-6719.66V5495ZM-6759.62 5495H-6779.6V5503H-6759.62V5495ZM-6799.58 5495H-6819.56V5503H-6799.58V5495ZM-6839.54 5495H-6859.53V5503H-6839.54V5495ZM-6879.51 5495H-6899.49V5503H-6879.51V5495ZM-6919.47 5495H-6939.45V5503H-6919.47V5495ZM-6959.43 5495H-6979.42V5503H-6959.43V5495ZM-6999.4 5495H-7019.38V5503H-6999.4V5495ZM-7039.36 5495H-7059.34V5503H-7039.36V5495ZM-7079.32 5495H-7099.3V5503H-7079.32V5495ZM-7119.29 5495H-7139.27V5503H-7119.29V5495ZM-7159.25 5495H-7179.23V5503H-7159.25V5495ZM-7199.21 5495H-7219.19V5503H-7199.21V5495ZM-7239.17 5495H-7259.16V5503H-7239.17V5495ZM-7279.14 5495H-7299.12V5503H-7279.14V5495ZM-7319.1 5495H-7339.08V5503H-7319.1V5495ZM-7359.06 5495H-7379.04V5503H-7359.06V5495ZM-7399.03 5495H-7419.01V5503H-7399.03V5495ZM-7438.99 5495H-7449V5503H-7438.99V5495Z" fill="black" fill-opacity="0.2"/>
</g>
<defs>
<clipPath id="clip0_0_1">
<rect width="380" height="812" fill="white" transform="translate(-107 -93)"/>
</clipPath>
</defs>
</svg>
