<svg width="24" height="24" viewBox="0 0 24 24" fill="none" xmlns="http://www.w3.org/2000/svg">
<path d="M19.4539 11.5V19C19.4539 19.5523 19.0061 20 18.4539 20H5C4.44772 20 4 19.5523 4 19V5.54614C4 4.99386 4.44772 4.54614 5 4.54614H13.2772" stroke="#464655" stroke-width="1.5" stroke-miterlimit="10" stroke-linecap="round"/>
<path d="M12.5001 14.5924L8.63867 15.3615L9.40772 11.5L17.2682 3.63953C17.471 3.43625 17.7121 3.27509 17.9774 3.16533C18.2428 3.05558 18.5273 2.99939 18.8144 3C19.3941 3 19.9501 3.23029 20.36 3.64019C20.7699 4.05009 21.0001 4.60604 21.0001 5.18573C21.0007 5.47289 20.9446 5.75734 20.8348 6.0227C20.725 6.28806 20.5639 6.52909 20.3606 6.73192L12.5001 14.5924Z" stroke="#464655" stroke-width="1.5" stroke-miterlimit="10" stroke-linejoin="round"/>
</svg>
