<svg width="20" height="20" viewBox="0 0 20 20" fill="none" xmlns="http://www.w3.org/2000/svg">
<path d="M15.1841 3.78125H5.20814C4.03554 3.78125 3.08496 4.73158 3.08496 5.90388V15.8772C3.08496 17.0495 4.03554 17.9999 5.20814 17.9999H15.1841C16.3567 17.9999 17.3073 17.0495 17.3073 15.8772V5.90388C17.3073 4.73158 16.3567 3.78125 15.1841 3.78125Z" fill="#626272"/>
<path d="M7.40695 2H7.07673C6.29195 2 5.65576 2.63602 5.65576 3.4206V14.798C5.65576 15.5826 6.29195 16.2186 7.07673 16.2186H7.40695C8.19173 16.2186 8.82792 15.5826 8.82792 14.798V3.4206C8.82792 2.63602 8.19173 2 7.40695 2Z" fill="#626272"/>
<path d="M13.2776 2H12.9473C12.1626 2 11.5264 2.63602 11.5264 3.4206V14.798C11.5264 15.5826 12.1626 16.2186 12.9473 16.2186H13.2776C14.0623 16.2186 14.6985 15.5826 14.6985 14.798V3.4206C14.6985 2.63602 14.0623 2 13.2776 2Z" fill="#626272"/>
<path d="M14.269 7.79492H6.1223C5.3706 7.79492 4.76123 8.40414 4.76123 9.15564V14.9846C4.76123 15.7361 5.3706 16.3453 6.1223 16.3453H14.269C15.0207 16.3453 15.6301 15.7361 15.6301 14.9846V9.15564C15.6301 8.40414 15.0207 7.79492 14.269 7.79492Z" fill="#F5F5F9"/>
<path d="M7.42268 9.68359H6.83711C6.41578 9.68359 6.07422 10.0251 6.07422 10.4463V10.8773C6.07422 11.2985 6.41578 11.64 6.83711 11.64H7.42268C7.84402 11.64 8.18558 11.2985 8.18558 10.8773V10.4463C8.18558 10.0251 7.84402 9.68359 7.42268 9.68359Z" fill="#626272"/>
<path d="M7.42268 12.5H6.83711C6.41578 12.5 6.07422 12.8415 6.07422 13.2627V13.6937C6.07422 14.1149 6.41578 14.4564 6.83711 14.4564H7.42268C7.84402 14.4564 8.18558 14.1149 8.18558 13.6937V13.2627C8.18558 12.8415 7.84402 12.5 7.42268 12.5Z" fill="#626272"/>
<path d="M10.4388 9.68359H9.85323C9.43189 9.68359 9.09033 10.0251 9.09033 10.4463V10.8773C9.09033 11.2985 9.43189 11.64 9.85323 11.64H10.4388C10.8601 11.64 11.2017 11.2985 11.2017 10.8773V10.4463C11.2017 10.0251 10.8601 9.68359 10.4388 9.68359Z" fill="#626272"/>
<path d="M10.4388 12.5H9.85323C9.43189 12.5 9.09033 12.8415 9.09033 13.2627V13.6937C9.09033 14.1149 9.43189 14.4564 9.85323 14.4564H10.4388C10.8601 14.4564 11.2017 14.1149 11.2017 13.6937V13.2627C11.2017 12.8415 10.8601 12.5 10.4388 12.5Z" fill="#626272"/>
<path d="M13.5545 9.68359H12.9689C12.5476 9.68359 12.2061 10.0251 12.2061 10.4463V10.8773C12.2061 11.2985 12.5476 11.64 12.9689 11.64H13.5545C13.9759 11.64 14.3174 11.2985 14.3174 10.8773V10.4463C14.3174 10.0251 13.9759 9.68359 13.5545 9.68359Z" fill="#626272"/>
<path d="M13.5545 12.5H12.9689C12.5476 12.5 12.2061 12.8415 12.2061 13.2627V13.6937C12.2061 14.1149 12.5476 14.4564 12.9689 14.4564H13.5545C13.9759 14.4564 14.3174 14.1149 14.3174 13.6937V13.2627C14.3174 12.8415 13.9759 12.5 13.5545 12.5Z" fill="#626272"/>
</svg>
