<svg width="16" height="16" viewBox="0 0 16 16" fill="none" xmlns="http://www.w3.org/2000/svg">
<g clip-path="url(#clip0_2243_3445)">
<path d="M13.7104 8C13.7111 7.64869 13.6777 7.29815 13.6106 6.95333L15 6.15333L13.0921 2.82L11.7094 3.62C11.1749 3.16576 10.5621 2.8133 9.90123 2.58V1H6.09876V2.60667C5.4379 2.83997 4.82511 3.19243 4.2906 3.64667L2.90788 2.84667L1 6.18L2.38936 6.98C2.25639 7.67141 2.25639 8.38193 2.38936 9.07333L1 9.87333L2.90788 13.2067L4.2906 12.4067C4.82511 12.8609 5.4379 13.2134 6.09876 13.4467V15H9.90123V13.3933C10.5621 13.16 11.1749 12.8076 11.7094 12.3533L13.0921 13.1533L15 9.82L13.6106 9.02C13.676 8.68393 13.7094 8.3424 13.7104 8Z" stroke="#151515" stroke-width="1.3" stroke-miterlimit="10"/>
<path d="M8 10C9.10457 10 10 9.10457 10 8C10 6.89543 9.10457 6 8 6C6.89543 6 6 6.89543 6 8C6 9.10457 6.89543 10 8 10Z" stroke="#151515" stroke-width="1.3" stroke-miterlimit="10"/>
</g>
<defs>
<clipPath id="clip0_2243_3445">
<rect width="16" height="16" fill="white"/>
</clipPath>
</defs>
</svg>
