<svg width="24" height="24" viewBox="0 0 24 24" fill="none" xmlns="http://www.w3.org/2000/svg">
<rect width="24" height="24" rx="8" fill="#FFF7D9"/>
<path d="M12.0934 6H11.9199C11.7516 5.99974 11.586 6.04452 11.4388 6.13009C11.2917 6.21566 11.1678 6.33919 11.0791 6.48894L5.15348 16.4144C5.05352 16.5794 5.0003 16.7707 5 16.9662C4.99999 17.1031 5.02597 17.2387 5.07643 17.365C5.1269 17.4913 5.20084 17.6059 5.29397 17.7021C5.38709 17.7983 5.49755 17.8741 5.61891 17.9253C5.74028 17.9764 5.87014 18.0018 6.00095 17.9999H18.0124C18.2743 17.9999 18.5255 17.891 18.7107 17.6971C18.8959 17.5033 19 17.2403 19 16.9662C18.9997 16.7707 18.9465 16.5794 18.8465 16.4144L12.9342 6.48894C12.8455 6.33919 12.7217 6.21566 12.5745 6.13009C12.4274 6.04452 12.2618 5.99974 12.0934 6Z" stroke="#FFA800" stroke-width="1.5" stroke-miterlimit="10"/>
<path d="M12 10V14" stroke="#FFA800" stroke-width="1.5" stroke-miterlimit="10"/>
<path d="M12 15V16" stroke="#FFA800" stroke-width="1.5" stroke-miterlimit="10"/>
</svg>
