<svg width="20" height="20" viewBox="0 0 20 20" fill="none" xmlns="http://www.w3.org/2000/svg">
<g id="icon-health">
<path id="Union" d="M7.75 5L8.5 5V5H7.75ZM7.75 7.75V8.5C8.16421 8.5 8.5 8.16421 8.5 7.75H7.75ZM7.75 12.25H8.5C8.5 12.0511 8.42098 11.8603 8.28033 11.7197C8.13968 11.579 7.94891 11.5 7.75 11.5V12.25ZM7.75 15H7H7.75ZM12.25 12.25V11.5C11.8358 11.5 11.5 11.8358 11.5 12.25H12.25ZM12.25 7.75H11.5C11.5 8.16421 11.8358 8.5 12.25 8.5V7.75ZM11.25 4.75C11.3881 4.75 11.5 4.86193 11.5 5H13C13 4.0335 12.2165 3.25 11.25 3.25V4.75ZM8.75 4.75H11.25V3.25H8.75V4.75ZM8.5 5C8.5 4.86193 8.61193 4.75 8.75 4.75V3.25C7.7835 3.25 7 4.0335 7 5H8.5ZM8.5 7.75L8.5 5L7 5L7 7.75H8.5ZM5 8.5H7.75V7H5V8.5ZM4.75 8.75C4.75 8.61193 4.86193 8.5 5 8.5V7C4.0335 7 3.25 7.7835 3.25 8.75H4.75ZM4.75 11.25V8.75H3.25V11.25H4.75ZM5 11.5C4.86193 11.5 4.75 11.3881 4.75 11.25H3.25C3.25 12.2165 4.0335 13 5 13V11.5ZM7.75 11.5H5V13H7.75V11.5ZM8.5 15V12.25H7L7 15H8.5ZM8.75 15.25C8.61193 15.25 8.5 15.1381 8.5 15H7C7 15.9665 7.7835 16.75 8.75 16.75V15.25ZM11.25 15.25H8.75V16.75H11.25V15.25ZM11.5 15C11.5 15.1381 11.3881 15.25 11.25 15.25V16.75C12.2165 16.75 13 15.9665 13 15H11.5ZM11.5 12.25V15H13V12.25H11.5ZM15 11.5H12.25V13H15V11.5ZM15.25 11.25C15.25 11.3881 15.1381 11.5 15 11.5V13C15.9665 13 16.75 12.2165 16.75 11.25H15.25ZM15.25 8.75V11.25H16.75V8.75H15.25ZM15 8.5C15.1381 8.5 15.25 8.61193 15.25 8.75H16.75C16.75 7.7835 15.9665 7 15 7V8.5ZM12.25 8.5H15V7H12.25V8.5ZM11.5 5V7.75H13V5H11.5Z" fill="#626272"/>
</g>
</svg>
